<svg width="36" height="27" viewBox="0 0 36 27" fill="none" xmlns="http://www.w3.org/2000/svg">
<path d="M7.51111 26.3744H12.7294C14.8859 26.3744 16.7957 24.9813 17.4542 22.927C17.5645 22.5834 17.6749 22.2398 17.7853 21.8962C17.8609 21.6617 17.9366 21.426 18.011 21.1916C18.76 18.8544 19.5103 16.5173 20.2593 14.1815C20.7665 12.6023 21.8416 11.2675 23.2777 10.4388C19.2486 12.766 15.2183 15.0932 11.1892 17.4204C10.1215 18.0369 9.32165 19.0281 8.9459 20.2029C8.76485 20.7673 8.58379 21.333 8.40274 21.8974C7.97987 23.2173 7.55576 24.5372 7.13289 25.8571C7.05104 26.1139 7.24201 26.3756 7.51111 26.3756V26.3744Z" fill="#0075C9"/>
<path d="M0.399191 15.9045H5.6175C7.77402 15.9045 9.68376 14.5114 10.3423 12.4572C10.5766 11.7278 10.8098 10.9996 11.0441 10.2702C11.6468 8.39327 12.2483 6.51514 12.851 4.63826C13.7376 1.87441 16.3059 0 19.2077 0H14.6069C8.85662 0 3.76356 3.71532 2.00759 9.19216C1.83522 9.72806 1.66409 10.2652 1.49171 10.8011C1.00188 12.3294 0.512039 13.8565 0.0209627 15.3848C-0.0608834 15.6416 0.130091 15.9033 0.399191 15.9033V15.9045Z" fill="#0075C9"/>
<path d="M34.7572 0.0012207H19.2077C16.3071 0.0012207 13.7376 1.87563 12.851 4.63948C12.2483 6.51636 11.6468 8.39449 11.0442 10.2714C11.7907 7.94295 13.9547 6.36502 16.3989 6.36502H30.8472C32.2845 6.36502 33.558 5.43588 33.997 4.06636C34.3765 2.88416 34.7547 1.70196 35.1342 0.520993C35.216 0.264208 35.0251 0.00246124 34.756 0.00246124L34.7572 0.0012207Z" fill="url(#paint0_linear_170_1000)"/>
<path d="M32.7222 9.54189H26.6172C25.4453 9.54189 24.2945 9.85078 23.2789 10.4363C21.8429 11.2662 20.7665 12.5997 20.2605 14.1789C19.5115 16.516 18.7612 18.8531 18.0122 21.189C19.0229 18.0394 21.9507 15.9032 25.2568 15.9032H28.8134C30.2507 15.9032 31.5243 14.9741 31.9633 13.6045C32.3427 12.4223 32.7209 11.2401 33.1004 10.0592C33.1823 9.8024 32.9913 9.54065 32.7222 9.54065V9.54189Z" fill="url(#paint1_linear_170_1000)"/>
<defs>
<linearGradient id="paint0_linear_170_1000" x1="13.8666" y1="1.83345" x2="32.364" y2="8.56295" gradientUnits="userSpaceOnUse">
<stop stop-color="#201747"/>
<stop offset="0.12" stop-color="#172E68"/>
<stop offset="0.28" stop-color="#0E498D"/>
<stop offset="0.42" stop-color="#085DA8"/>
<stop offset="0.55" stop-color="#0468B8"/>
<stop offset="0.65" stop-color="#036DBE"/>
<stop offset="0.79" stop-color="#0072C5"/>
<stop offset="1" stop-color="#0075C9"/>
</linearGradient>
<linearGradient id="paint1_linear_170_1000" x1="19.9629" y1="13.9097" x2="31.2594" y2="16.9359" gradientUnits="userSpaceOnUse">
<stop stop-color="#201747"/>
<stop offset="0.03" stop-color="#1D1C4F"/>
<stop offset="0.16" stop-color="#143774"/>
<stop offset="0.31" stop-color="#0D4E93"/>
<stop offset="0.46" stop-color="#075FAA"/>
<stop offset="0.61" stop-color="#036BBB"/>
<stop offset="0.79" stop-color="#0072C5"/>
<stop offset="1" stop-color="#0075C9"/>
</linearGradient>
</defs>
</svg>
