<svg width="272" height="39" viewBox="0 0 272 39" fill="none" xmlns="http://www.w3.org/2000/svg">
<g clip-path="url(#clip0_65_1266)">
<path d="M265.693 34.7053H271.563C271.805 34.7053 272 34.5099 272 34.2721V20.6441C272 20.3332 271.995 20.024 271.983 19.725C271.971 19.4277 271.954 19.1322 271.931 18.8484C271.909 18.5647 271.878 18.2844 271.844 18.0143C271.81 17.7442 271.769 17.4775 271.722 17.2227C271.676 16.9678 271.623 16.7147 271.566 16.4735C271.513 16.2526 271.457 16.0369 271.395 15.8279C271.326 15.5986 271.253 15.3726 271.172 15.1586C271.093 14.9445 271.006 14.7322 270.915 14.5317C270.824 14.3313 270.726 14.1342 270.623 13.9456C270.521 13.7588 270.411 13.5753 270.298 13.402C270.185 13.2287 270.063 13.0588 269.938 12.8992C269.813 12.7395 269.681 12.5832 269.543 12.4354C269.406 12.2893 269.262 12.1466 269.115 12.0124C268.966 11.8782 268.81 11.749 268.65 11.6284C268.491 11.5078 268.321 11.3906 268.15 11.2836C267.978 11.1765 267.798 11.0729 267.613 10.9778C267.43 10.8826 267.236 10.7926 267.04 10.7111C266.843 10.6278 266.639 10.5514 266.432 10.4834C266.224 10.4138 266.007 10.3509 265.786 10.2932C265.564 10.2371 265.335 10.1861 265.102 10.142C264.87 10.0978 264.627 10.0604 264.38 10.0298C264.135 9.99925 263.878 9.97547 263.62 9.95678C263.365 9.93979 263.096 9.9279 262.823 9.92281C262.755 9.92281 262.686 9.92111 262.618 9.92111C262.547 9.92111 262.479 9.92111 262.41 9.92111C262.273 9.92111 262.138 9.92451 262 9.9296C261.733 9.9381 261.467 9.95508 261.21 9.98057C260.953 10.0044 260.699 10.0366 260.458 10.074C260.214 10.1131 259.974 10.1589 259.744 10.2116C259.515 10.2643 259.287 10.3254 259.069 10.3934C258.851 10.4613 258.637 10.5361 258.433 10.6176C258.229 10.6992 258.027 10.7892 257.835 10.8843C257.643 10.9795 257.454 11.0848 257.276 11.1952C257.098 11.304 256.923 11.4229 256.755 11.5469C256.587 11.6709 256.426 11.8051 256.273 11.9427C256.119 12.082 255.97 12.2281 255.829 12.381C255.688 12.5339 255.551 12.6953 255.424 12.8618L255.248 13.0911C255.157 13.21 255.006 13.2559 254.864 13.2083C254.722 13.1608 254.629 13.0334 254.629 12.8856V1.32334C254.629 1.0838 254.432 0.890137 254.192 0.890137H248.367C248.125 0.890137 247.929 1.0855 247.929 1.32334V34.2721C247.929 34.5116 248.127 34.7053 248.367 34.7053H254.192C254.434 34.7053 254.629 34.5099 254.629 34.2721V21.1775C254.629 20.9482 254.634 20.7223 254.644 20.5082C254.655 20.2908 254.67 20.0784 254.691 19.8762C254.711 19.6707 254.737 19.4702 254.768 19.28C254.799 19.088 254.835 18.8994 254.876 18.721C254.929 18.49 254.992 18.2658 255.063 18.0551C255.118 17.8903 255.179 17.7306 255.244 17.5794C255.311 17.4265 255.383 17.2787 255.459 17.1394C255.536 16.9984 255.62 16.8642 255.707 16.7368C255.795 16.6094 255.891 16.4854 255.988 16.3716C256.088 16.256 256.194 16.1456 256.304 16.0437C256.414 15.9418 256.53 15.8449 256.652 15.7549C256.772 15.6665 256.9 15.5816 257.032 15.5052C257.163 15.4287 257.302 15.3591 257.444 15.2945C257.584 15.2316 257.734 15.1739 257.888 15.1229C258.04 15.072 258.2 15.0278 258.361 14.9904C258.522 14.953 258.692 14.9225 258.865 14.897C259.036 14.8732 259.216 14.8528 259.4 14.8409C259.583 14.829 259.772 14.8222 259.964 14.8222C260.156 14.8222 260.343 14.829 260.523 14.8409C260.704 14.8528 260.883 14.8715 261.052 14.897C261.224 14.9208 261.392 14.953 261.551 14.9887C261.712 15.0261 261.87 15.0703 262.021 15.1195C262.174 15.1688 262.321 15.2265 262.46 15.2877C262.6 15.3506 262.738 15.4202 262.868 15.495C262.998 15.5697 263.125 15.653 263.245 15.7413C263.365 15.8296 263.482 15.9248 263.59 16.0267C263.699 16.1269 263.804 16.2357 263.902 16.3495C263.999 16.4616 264.094 16.5839 264.181 16.7096C264.268 16.8353 264.351 16.9678 264.428 17.1072C264.503 17.2448 264.575 17.3909 264.64 17.5404C264.706 17.6898 264.766 17.8478 264.82 18.0092C264.891 18.2165 264.952 18.4373 265.006 18.665C265.047 18.8417 265.083 19.0268 265.114 19.2171C265.144 19.4057 265.17 19.6027 265.191 19.8049C265.211 20.0054 265.227 20.216 265.237 20.4284C265.247 20.6407 265.252 20.8633 265.252 21.0875V34.2704C265.252 34.5099 265.45 34.7036 265.69 34.7036L265.693 34.7053Z" fill="white"/>
<path d="M235.418 9.94154C235.324 9.94494 235.23 9.95003 235.134 9.95683C235.04 9.96192 234.945 9.96872 234.849 9.97552C234.755 9.98231 234.661 9.98911 234.566 9.9976C234.472 10.0061 234.378 10.0146 234.284 10.0231C234.105 10.0401 233.929 10.0605 233.75 10.0825C233.574 10.1046 233.396 10.1301 233.221 10.1573C233.054 10.1828 232.888 10.2117 232.722 10.2422C232.556 10.2728 232.391 10.3068 232.226 10.3425C231.911 10.4121 231.599 10.4903 231.299 10.5769C231.006 10.6618 230.714 10.7553 230.435 10.8555C230.161 10.954 229.892 11.0628 229.634 11.1766C229.381 11.2887 229.132 11.4093 228.892 11.5367C228.657 11.6608 228.428 11.795 228.208 11.9326C227.994 12.0668 227.783 12.2112 227.579 12.3624C227.38 12.5085 227.186 12.6631 227.003 12.8211C226.823 12.9756 226.646 13.1404 226.477 13.3086C226.312 13.4717 226.151 13.6433 225.998 13.82C225.848 13.9932 225.702 14.1716 225.565 14.3534C225.431 14.5301 225.299 14.7152 225.176 14.9055C225.054 15.089 224.937 15.281 224.828 15.4729C224.72 15.6615 224.617 15.8569 224.519 16.0539C224.332 16.4328 224.161 16.8337 224.01 17.2465C223.867 17.6338 223.741 18.0416 223.633 18.4561C223.554 18.7602 223.482 19.0761 223.42 19.3938C223.346 19.7778 223.285 20.1753 223.237 20.5779C223.192 20.9482 223.159 21.3305 223.139 21.7144C223.12 22.0627 223.11 22.4211 223.11 22.7779C223.11 23.1346 223.12 23.4948 223.139 23.8447C223.159 24.2287 223.192 24.6126 223.237 24.9847C223.285 25.389 223.346 25.7882 223.42 26.1721C223.482 26.4915 223.554 26.8092 223.633 27.1133C223.741 27.5295 223.867 27.9389 224.01 28.328C224.161 28.7408 224.332 29.1434 224.519 29.5239C224.617 29.7227 224.721 29.9198 224.828 30.1083C224.937 30.302 225.056 30.494 225.176 30.6791C225.299 30.8677 225.431 31.0546 225.565 31.233C225.704 31.4164 225.849 31.5965 225.998 31.7681C226.151 31.9448 226.312 32.1163 226.477 32.2811C226.646 32.4493 226.823 32.6141 227.003 32.7687C227.188 32.9284 227.382 33.083 227.581 33.2291C227.783 33.3786 227.994 33.523 228.21 33.6589C228.429 33.7982 228.661 33.9324 228.894 34.0564C229.132 34.1838 229.381 34.3044 229.636 34.4183C229.895 34.5321 230.164 34.6408 230.437 34.741C230.716 34.843 231.006 34.9364 231.301 35.0213C231.601 35.108 231.913 35.1861 232.228 35.2558C232.55 35.3271 232.885 35.39 233.222 35.4426C233.569 35.497 233.927 35.5429 234.285 35.5786C234.654 35.6142 235.034 35.6414 235.42 35.6601C235.619 35.6686 235.816 35.6754 236.015 35.6788C236.116 35.6805 236.217 35.6822 236.318 35.6822H236.598C236.924 35.6822 237.243 35.6754 237.546 35.6652C237.855 35.655 238.158 35.6397 238.448 35.621C238.741 35.6006 239.031 35.5769 239.31 35.5463C239.591 35.5174 239.871 35.4817 240.14 35.4426C240.409 35.4036 240.68 35.3577 240.945 35.3084C241.208 35.2592 241.473 35.2031 241.736 35.142C241.996 35.0808 242.259 35.0145 242.517 34.9432L242.883 34.8413C243.164 34.7631 243.361 34.5066 243.361 34.2178V29.6327C243.361 29.4967 243.297 29.371 243.189 29.2878C243.08 29.2045 242.941 29.1791 242.809 29.2147L242.341 29.3422C242.173 29.388 242.005 29.4305 241.835 29.4713C241.672 29.5103 241.508 29.5477 241.343 29.5817C241.182 29.6157 241.021 29.6462 240.858 29.6734C240.697 29.7006 240.536 29.7261 240.373 29.7482C240.208 29.7703 240.045 29.7889 239.881 29.8059C239.711 29.8229 239.543 29.8365 239.373 29.8484C239.192 29.8603 239.01 29.8688 238.828 29.8756C238.647 29.8824 238.465 29.8858 238.283 29.8875H237.99C237.918 29.8892 237.848 29.8875 237.776 29.8875C237.704 29.8875 237.632 29.8858 237.561 29.8824C237.419 29.8773 237.279 29.8722 237.136 29.8637C236.994 29.8552 236.853 29.8433 236.713 29.8314C236.577 29.8195 236.444 29.8042 236.308 29.7856C236.174 29.7686 236.039 29.7482 235.905 29.7261C235.645 29.6836 235.388 29.6293 235.142 29.5698C234.897 29.5103 234.656 29.439 234.424 29.3625C234.193 29.2844 233.966 29.1978 233.75 29.1043C233.534 29.0109 233.325 28.9073 233.125 28.7968C232.926 28.6864 232.73 28.5658 232.549 28.4401C232.367 28.3144 232.189 28.1768 232.022 28.0358C231.933 27.9593 231.848 27.8812 231.764 27.8013C231.608 27.6518 231.457 27.4904 231.318 27.3256C231.179 27.1609 231.049 26.9859 230.927 26.8058C230.807 26.6257 230.694 26.4355 230.593 26.2418C230.471 26.0091 230.361 25.7627 230.269 25.5113C230.19 25.3006 230.121 25.0815 230.063 24.8589C230.005 24.6364 229.955 24.4037 229.917 24.1675C229.88 23.9314 229.85 23.6868 229.833 23.4387C229.825 23.313 229.818 23.1873 229.814 23.0616C229.811 22.9325 229.809 22.8034 229.811 22.676C229.814 22.4177 229.826 22.1629 229.849 21.9183C229.871 21.6736 229.905 21.4307 229.948 21.198C229.991 20.9652 230.044 20.7359 230.106 20.5167C230.169 20.2976 230.241 20.0818 230.324 19.8746C230.411 19.6554 230.51 19.4414 230.62 19.2358C230.723 19.0439 230.836 18.8587 230.958 18.6803C231.08 18.5036 231.212 18.3321 231.352 18.1707C231.491 18.0093 231.644 17.853 231.801 17.7052C231.959 17.5591 232.129 17.4181 232.304 17.2873C232.478 17.1565 232.665 17.0324 232.859 16.9169C233.053 16.8014 233.257 16.6944 233.464 16.5958C233.673 16.4973 233.893 16.4056 234.119 16.324C234.234 16.2816 234.349 16.2425 234.465 16.2068C234.674 16.1406 234.894 16.0794 235.117 16.0267C235.364 15.9673 235.622 15.9163 235.885 15.8738C236.145 15.8314 236.42 15.7974 236.699 15.7719C236.977 15.7464 237.265 15.7294 237.558 15.7227C237.632 15.721 237.705 15.7193 237.779 15.7176C237.94 15.7159 238.1 15.7176 238.261 15.7176C238.436 15.7193 238.611 15.7243 238.784 15.7311C238.953 15.7379 239.123 15.7464 239.291 15.76C239.457 15.7719 239.624 15.7855 239.788 15.8025C239.953 15.8195 240.117 15.8382 240.28 15.8603C240.445 15.8823 240.609 15.9078 240.772 15.935C240.939 15.9622 241.105 15.9928 241.269 16.0267C241.599 16.093 241.936 16.1694 242.301 16.2629L242.773 16.3835C242.905 16.4175 243.042 16.3886 243.15 16.307C243.258 16.2238 243.32 16.0998 243.32 15.9639V11.3855C243.32 11.0967 243.123 10.8402 242.841 10.7621L242.476 10.6618C242.214 10.5888 241.952 10.5225 241.695 10.4631C241.436 10.4019 241.172 10.3476 240.906 10.2966C240.642 10.2473 240.373 10.2015 240.104 10.1624C239.835 10.1233 239.559 10.0876 239.279 10.0588C238.998 10.0299 238.71 10.0044 238.425 9.98401C238.276 9.97382 238.129 9.96532 237.98 9.95853C237.83 9.95173 237.683 9.94494 237.534 9.93984C237.378 9.93474 237.222 9.93135 237.066 9.92795C236.91 9.92455 236.754 9.92285 236.598 9.92285C236.565 9.92285 236.533 9.92285 236.5 9.92285C236.435 9.92285 236.37 9.92285 236.303 9.92285C236.205 9.92285 236.108 9.92455 236.008 9.92625C235.811 9.92965 235.616 9.93644 235.42 9.94494L235.418 9.94154Z" fill="white"/>
<path d="M219.463 24.086V22.8237C219.463 22.4364 219.457 22.0559 219.443 21.6906C219.429 21.3237 219.409 20.9601 219.381 20.6136C219.354 20.2636 219.319 19.9204 219.278 19.5926C219.237 19.263 219.189 18.9368 219.134 18.6259C219.079 18.3151 219.016 18.0076 218.947 17.7137C218.884 17.447 218.815 17.1836 218.742 16.9322C218.659 16.6553 218.57 16.3835 218.474 16.1236C218.378 15.8653 218.274 15.6105 218.164 15.3676C218.054 15.1264 217.934 14.8885 217.811 14.6643C217.686 14.44 217.554 14.2209 217.415 14.0136C217.276 13.8064 217.129 13.6042 216.974 13.4139C216.822 13.2237 216.659 13.0385 216.491 12.8635C216.323 12.6902 216.146 12.5203 215.963 12.3624C215.779 12.2027 215.586 12.0515 215.389 11.9088C215.19 11.7661 214.982 11.6302 214.768 11.5028C214.554 11.3753 214.329 11.2547 214.099 11.1443C213.871 11.0339 213.63 10.9285 213.383 10.8334C213.136 10.7366 212.879 10.6482 212.618 10.5684C212.356 10.4886 212.082 10.4138 211.804 10.3492C211.524 10.2847 211.233 10.2252 210.938 10.176C210.643 10.1267 210.335 10.0825 210.023 10.0469C209.709 10.0112 209.383 9.984 209.056 9.96361C208.728 9.94323 208.386 9.92964 208.038 9.92454C207.95 9.92454 207.863 9.92284 207.775 9.92114C207.732 9.92114 207.69 9.92114 207.645 9.92114C207.595 9.92114 207.546 9.92114 207.496 9.92114C207.306 9.92114 207.115 9.92624 206.925 9.93134C206.551 9.94323 206.179 9.96531 205.823 9.99589C205.468 10.0265 205.115 10.0672 204.775 10.1165C204.438 10.1658 204.103 10.2252 203.783 10.2932C203.462 10.3611 203.147 10.4393 202.845 10.5242C202.542 10.6109 202.245 10.7077 201.964 10.8113C201.681 10.915 201.403 11.0305 201.138 11.1528C200.872 11.2751 200.613 11.4076 200.368 11.5486C200.121 11.6896 199.881 11.8408 199.653 11.9988C199.425 12.1568 199.204 12.3267 198.993 12.5034C198.782 12.68 198.58 12.8686 198.389 13.0623C198.199 13.2559 198.014 13.4615 197.841 13.6756C197.695 13.8556 197.553 14.0442 197.419 14.2362C197.285 14.4298 197.155 14.632 197.035 14.8392C196.913 15.0465 196.797 15.264 196.687 15.4848C196.577 15.7074 196.473 15.9384 196.377 16.1728C196.281 16.4073 196.188 16.6536 196.104 16.9016C196.005 17.1972 195.912 17.5047 195.83 17.8173C195.76 18.0823 195.696 18.3592 195.64 18.6378C195.583 18.9181 195.532 19.2069 195.487 19.4991C195.443 19.793 195.405 20.0954 195.372 20.4012C195.341 20.7087 195.316 21.0247 195.297 21.3424C195.278 21.66 195.266 21.9913 195.259 22.3243C195.256 22.4942 195.256 22.6641 195.256 22.8356C195.256 23.0208 195.259 23.2077 195.263 23.3928C195.271 23.7581 195.288 24.1199 195.311 24.4682C195.335 24.8165 195.367 25.1613 195.407 25.4926C195.446 25.8239 195.494 26.1517 195.549 26.466C195.604 26.7803 195.667 27.0912 195.737 27.3885C195.808 27.6875 195.887 27.9797 195.972 28.2617C196.027 28.4418 196.085 28.6184 196.145 28.7917C196.241 29.0618 196.346 29.3286 196.456 29.5817C196.567 29.8365 196.687 30.0845 196.812 30.3224C196.937 30.5602 197.075 30.7929 197.215 31.0138C197.357 31.2346 197.508 31.4521 197.666 31.6559C197.822 31.8598 197.99 32.0603 198.163 32.2505C198.335 32.4391 198.518 32.6226 198.707 32.7959C198.895 32.9691 199.094 33.1356 199.298 33.2936C199.502 33.4516 199.716 33.6028 199.938 33.7438C200.159 33.8865 200.39 34.0224 200.625 34.1481C200.862 34.2738 201.108 34.3945 201.36 34.5049C201.612 34.6153 201.876 34.7189 202.146 34.8158C202.341 34.8854 202.543 34.95 202.747 35.0111C203.027 35.0944 203.32 35.1708 203.618 35.2405C203.915 35.3084 204.223 35.3696 204.539 35.4223C204.851 35.4749 205.176 35.5191 205.511 35.5565C205.843 35.5938 206.186 35.6227 206.532 35.6448C206.879 35.6669 207.24 35.6805 207.604 35.6856C207.696 35.6856 207.787 35.6873 207.88 35.689H208.077H208.137C208.296 35.689 208.454 35.689 208.614 35.6856C208.924 35.6822 209.234 35.6754 209.543 35.6669C210.15 35.6482 210.744 35.6176 211.314 35.5751C211.884 35.5327 212.447 35.4783 212.983 35.4121C213.253 35.3798 213.52 35.3424 213.787 35.3033C214.051 35.2643 214.314 35.2218 214.576 35.1742C214.835 35.1284 215.094 35.0791 215.351 35.0264C215.606 34.9738 215.86 34.9177 216.114 34.8582C216.366 34.7988 216.618 34.7359 216.87 34.6697C217.12 34.6034 217.37 34.5338 217.619 34.4607L217.999 34.3486C218.275 34.2687 218.467 34.0122 218.467 33.7268V30.0591C218.467 29.918 218.402 29.7906 218.287 29.7074C218.173 29.6258 218.03 29.6021 217.895 29.6462L217.475 29.7804C217.303 29.8365 217.13 29.8875 216.957 29.9384C216.746 29.9996 216.534 30.0557 216.321 30.11C216.078 30.1712 215.826 30.2306 215.574 30.285C215.293 30.3445 215.005 30.4005 214.718 30.4515C214.408 30.5058 214.086 30.5568 213.762 30.5993C213.414 30.6468 213.059 30.6859 212.709 30.7182C212.318 30.7539 211.92 30.7811 211.524 30.7997C211.13 30.8184 210.727 30.8218 210.338 30.8269C210.138 30.8269 209.939 30.8252 209.738 30.8201C209.538 30.815 209.339 30.8065 209.138 30.7963C208.958 30.7861 208.778 30.7743 208.598 30.759C208.418 30.7437 208.238 30.725 208.06 30.7046C207.724 30.6638 207.4 30.6146 207.095 30.5551C206.951 30.5262 206.807 30.4956 206.664 30.4617C206.522 30.4277 206.378 30.3903 206.238 30.3513C206.172 30.3326 206.107 30.3139 206.042 30.2935C205.977 30.2731 205.912 30.2527 205.847 30.2306C205.723 30.1899 205.602 30.144 205.48 30.0964C205.363 30.0506 205.25 30.003 205.137 29.9503C205.029 29.9011 204.923 29.8484 204.816 29.7923C204.715 29.7397 204.616 29.6819 204.518 29.6225C204.424 29.5647 204.331 29.5052 204.24 29.4424C204.153 29.3812 204.067 29.3184 203.983 29.2521C203.903 29.1876 203.824 29.1213 203.747 29.0516C203.671 28.9837 203.599 28.914 203.529 28.8427C203.46 28.773 203.394 28.7 203.33 28.6252C203.267 28.5522 203.207 28.4757 203.15 28.3993C203.094 28.3228 203.039 28.2447 202.987 28.1666C202.936 28.0884 202.886 28.0069 202.84 27.9253C202.794 27.8438 202.749 27.7622 202.708 27.679C202.627 27.5176 202.554 27.346 202.487 27.1693C202.423 27.0012 202.367 26.8245 202.317 26.6427C202.271 26.4728 202.228 26.291 202.192 26.1025C202.158 25.9292 202.128 25.744 202.103 25.5538C202.079 25.3771 202.06 25.1953 202.043 24.9982L202.034 24.8929C202.026 24.7978 202.058 24.7026 202.123 24.633C202.188 24.5633 202.281 24.5226 202.377 24.5226H219.018C219.259 24.5226 219.455 24.3272 219.455 24.0894L219.463 24.086ZM213.218 20.8395C213.153 20.9092 213.061 20.9499 212.965 20.9499H202.339C202.243 20.9499 202.151 20.9092 202.086 20.8395C202.02 20.7699 201.988 20.6747 201.996 20.5796L202.005 20.4743C202.024 20.2483 202.048 20.0275 202.075 19.8168C202.103 19.6045 202.135 19.3955 202.171 19.1967C202.207 18.998 202.248 18.8009 202.293 18.6123C202.338 18.4238 202.389 18.2403 202.442 18.0636C202.512 17.836 202.59 17.6168 202.674 17.4113C202.739 17.2499 202.811 17.0936 202.886 16.9441C202.962 16.7946 203.042 16.6502 203.126 16.5143C203.21 16.3767 203.301 16.2442 203.395 16.1202C203.49 15.9962 203.589 15.8755 203.692 15.7634C203.796 15.6496 203.906 15.5426 204.018 15.444C204.131 15.3438 204.249 15.2487 204.372 15.162C204.494 15.0754 204.623 14.9921 204.755 14.9174C204.887 14.8426 205.024 14.773 205.164 14.7118C205.305 14.649 205.452 14.5929 205.602 14.5437C205.751 14.4944 205.907 14.4502 206.064 14.4128C206.222 14.3755 206.387 14.3449 206.553 14.3211C206.639 14.3092 206.724 14.2973 206.81 14.2888C206.896 14.2803 206.982 14.2718 207.067 14.2667C207.156 14.26 207.247 14.2566 207.338 14.2532C207.547 14.2464 207.756 14.2481 207.964 14.2566C208.082 14.2616 208.2 14.2684 208.32 14.2786C208.543 14.2973 208.763 14.3262 208.972 14.3636C209.176 14.401 209.376 14.4468 209.567 14.5029C209.754 14.5572 209.935 14.6201 210.107 14.6915C210.275 14.7611 210.439 14.8409 210.594 14.9259C210.744 15.0108 210.892 15.1026 211.031 15.2028C211.166 15.2996 211.296 15.4067 211.418 15.5188C211.536 15.6275 211.651 15.7464 211.759 15.8687C211.862 15.9877 211.963 16.1151 212.056 16.2493C212.145 16.3767 212.232 16.5143 212.313 16.6553C212.39 16.7912 212.464 16.9356 212.532 17.0817C212.598 17.2227 212.659 17.3722 212.718 17.5251C212.772 17.6712 212.824 17.8241 212.872 17.9821C212.93 18.174 212.982 18.3762 213.03 18.5835C213.066 18.7398 213.096 18.8994 213.126 19.0574C213.153 19.2154 213.179 19.3751 213.201 19.5331C213.242 19.8253 213.275 20.1345 213.304 20.4777L213.313 20.583C213.321 20.6781 213.287 20.7716 213.222 20.8412L213.218 20.8395Z" fill="white"/>
<path d="M177.688 27.538C177.7 27.7928 177.717 28.0459 177.741 28.2872C177.763 28.5267 177.792 28.7611 177.826 28.9871C177.861 29.2096 177.9 29.4288 177.945 29.6394C177.989 29.8467 178.039 30.0505 178.092 30.2459C178.145 30.4379 178.205 30.6265 178.267 30.8065C178.329 30.9849 178.397 31.1599 178.469 31.3247C178.54 31.4878 178.615 31.6474 178.696 31.802C178.774 31.9532 178.858 32.0993 178.944 32.2403C179.03 32.3779 179.121 32.5122 179.215 32.6413C179.308 32.7687 179.405 32.891 179.505 33.0065C179.602 33.1203 179.707 33.2325 179.813 33.3378C179.918 33.4414 180.028 33.5416 180.139 33.6368C180.249 33.7302 180.364 33.8203 180.48 33.9069C180.595 33.9901 180.715 34.0717 180.835 34.1481C180.953 34.2229 181.079 34.2942 181.204 34.3622C181.327 34.4284 181.454 34.4913 181.583 34.5508C181.709 34.6085 181.84 34.6646 181.972 34.7155C182.227 34.8141 182.496 34.9041 182.774 34.9789C182.909 35.0162 183.047 35.0502 183.184 35.0808C183.405 35.13 183.638 35.1742 183.875 35.2116C184.139 35.2524 184.42 35.2863 184.706 35.3118C184.968 35.3356 185.237 35.3509 185.529 35.3611C185.663 35.3662 185.798 35.3696 185.933 35.3713C186 35.3713 186.065 35.3713 186.132 35.373H186.232H186.365C186.719 35.373 187.068 35.3645 187.403 35.3526C187.716 35.3407 188.027 35.3237 188.327 35.3016C188.608 35.2812 188.884 35.2558 189.146 35.2269C189.389 35.1997 189.633 35.1691 189.871 35.1351C190.082 35.1046 190.298 35.0689 190.511 35.0298C190.699 34.9958 190.886 34.9585 191.075 34.9177C191.241 34.882 191.405 34.8446 191.57 34.8056L191.853 34.7376C192.148 34.668 192.353 34.408 192.353 34.1074V30.4804C192.353 30.3444 192.292 30.2187 192.182 30.1372C192.074 30.0539 191.935 30.0268 191.803 30.0624L191.339 30.1848C190.507 30.4039 189.722 30.5109 188.935 30.5109C188.812 30.5092 188.693 30.5041 188.575 30.499C188.455 30.4939 188.337 30.4855 188.219 30.4753C188.1 30.4651 187.98 30.4515 187.862 30.4362C187.744 30.4209 187.627 30.4022 187.511 30.3801C187.356 30.3495 187.207 30.3156 187.068 30.2748C186.953 30.2425 186.842 30.2051 186.734 30.1661C186.621 30.1236 186.513 30.0777 186.41 30.0285C186.302 29.9758 186.197 29.9197 186.101 29.8586C185.999 29.7957 185.901 29.7261 185.808 29.6547C185.714 29.5817 185.623 29.5001 185.536 29.4152C185.448 29.3269 185.364 29.2334 185.287 29.1366C185.208 29.0363 185.133 28.9276 185.064 28.8172C184.994 28.7034 184.929 28.5811 184.871 28.4554C184.811 28.3262 184.756 28.1903 184.708 28.0493C184.658 27.9049 184.615 27.752 184.579 27.5974C184.541 27.4378 184.511 27.2696 184.485 27.0963C184.459 26.9213 184.44 26.7361 184.427 26.5442C184.413 26.3505 184.408 26.1483 184.408 25.9394V15.9673C184.408 15.7787 184.562 15.6258 184.752 15.6258H191.152C191.393 15.6258 191.589 15.4304 191.589 15.1926V11.3329C191.589 11.0933 191.392 10.8997 191.152 10.8997H184.752C184.562 10.8997 184.408 10.7468 184.408 10.5582V4.88071C184.408 4.64118 184.211 4.44751 183.971 4.44751H179.902C179.724 4.44751 179.551 4.52056 179.428 4.64967L173.443 10.9217C173.328 11.0424 173.265 11.2004 173.265 11.3668V15.1909C173.265 15.4304 173.462 15.6241 173.702 15.6241H177.319C177.509 15.6241 177.664 15.777 177.664 15.9656V26.7378C177.664 27.0079 177.67 27.2781 177.682 27.538H177.688Z" fill="white"/>
<path d="M163.584 34.7053H169.454C169.696 34.7053 169.891 34.51 169.891 34.2721V20.6441C169.891 20.3333 169.886 20.0241 169.874 19.7251C169.862 19.4278 169.845 19.1322 169.822 18.8485C169.8 18.5648 169.769 18.2845 169.735 18.0144C169.701 17.7442 169.66 17.4775 169.613 17.2227C169.567 16.9679 169.514 16.7148 169.457 16.4735C169.404 16.2527 169.348 16.0369 169.286 15.828C169.217 15.6003 169.144 15.3744 169.063 15.1586C168.984 14.9446 168.897 14.7339 168.806 14.5318C168.715 14.3296 168.617 14.1325 168.514 13.9457C168.413 13.7588 168.304 13.5753 168.189 13.402C168.076 13.2288 167.954 13.0589 167.829 12.8992C167.703 12.7395 167.571 12.5832 167.434 12.4354C167.297 12.2876 167.153 12.1466 167.006 12.0124C166.857 11.8782 166.701 11.7491 166.541 11.6285C166.382 11.5078 166.212 11.3906 166.041 11.2836C165.869 11.1766 165.689 11.0729 165.504 10.9778C165.321 10.8827 165.127 10.7926 164.931 10.7111C164.734 10.6279 164.53 10.5514 164.323 10.4835C164.115 10.4138 163.898 10.3509 163.677 10.2932C163.455 10.2371 163.226 10.1862 162.993 10.142C162.761 10.0978 162.518 10.0604 162.271 10.0299C162.024 9.99929 161.769 9.9755 161.511 9.95682C161.256 9.93983 160.987 9.92794 160.714 9.92284C160.646 9.92284 160.577 9.92114 160.509 9.92114C160.431 9.92114 160.354 9.92114 160.279 9.92114C160.116 9.92114 159.953 9.92624 159.789 9.93303C159.47 9.94662 159.156 9.96871 158.853 10.0027C158.551 10.035 158.256 10.0791 157.975 10.1318C157.694 10.1845 157.418 10.249 157.154 10.3221C156.891 10.3951 156.634 10.4784 156.389 10.5718C156.267 10.6177 156.147 10.6669 156.027 10.7196C155.909 10.7706 155.794 10.8249 155.679 10.8827C155.566 10.9387 155.455 10.9982 155.345 11.0611C155.235 11.1222 155.129 11.1868 155.023 11.2547C154.918 11.321 154.815 11.3906 154.714 11.4637C154.613 11.535 154.515 11.6098 154.418 11.6879C154.322 11.7644 154.227 11.8442 154.135 11.9275C154.042 12.0107 153.953 12.0956 153.864 12.1823C153.775 12.2706 153.689 12.3607 153.607 12.4524C153.523 12.5458 153.44 12.641 153.362 12.7395C153.281 12.838 153.204 12.94 153.128 13.0419C153.053 13.1455 152.979 13.2525 152.907 13.3596C152.765 13.5753 152.63 13.8064 152.501 14.0459L152.408 14.2192C152.347 14.3347 152.228 14.406 152.096 14.401C151.964 14.3976 151.848 14.3228 151.793 14.2056L150.396 11.2717C150.288 11.0458 150.056 10.8997 149.804 10.8997H146.256C146.014 10.8997 145.819 11.095 145.819 11.3329V34.2738C145.819 34.5134 146.016 34.707 146.256 34.707H152.081C152.323 34.707 152.518 34.5117 152.518 34.2738V21.1793C152.518 20.9516 152.523 20.7257 152.534 20.5099C152.544 20.2925 152.559 20.0801 152.58 19.878C152.6 19.6741 152.626 19.4737 152.657 19.2817C152.688 19.0897 152.724 18.9011 152.765 18.7228C152.818 18.4917 152.882 18.2675 152.952 18.0568C153.007 17.8937 153.068 17.7324 153.134 17.5812C153.199 17.43 153.271 17.2822 153.348 17.1412C153.425 17.0019 153.507 16.866 153.596 16.7385C153.686 16.6111 153.78 16.4871 153.878 16.3733C153.977 16.2578 154.082 16.1473 154.193 16.0454C154.303 15.9435 154.421 15.845 154.541 15.7566C154.661 15.6683 154.79 15.5833 154.922 15.5069C155.052 15.4304 155.191 15.3608 155.333 15.2962C155.474 15.2334 155.623 15.1756 155.777 15.1247C155.93 15.0737 156.089 15.0295 156.25 14.9921C156.411 14.9548 156.581 14.9242 156.754 14.8987C156.926 14.8749 157.106 14.8545 157.289 14.8426C157.473 14.8308 157.661 14.824 157.853 14.824C158.045 14.824 158.232 14.8308 158.412 14.8426C158.594 14.8545 158.77 14.8732 158.942 14.8987C159.113 14.9225 159.281 14.9548 159.441 14.9904C159.602 15.0278 159.759 15.072 159.91 15.1213C160.063 15.1722 160.21 15.2283 160.349 15.2894C160.49 15.3523 160.629 15.4219 160.757 15.4967C160.887 15.5714 161.014 15.6547 161.134 15.743C161.254 15.8314 161.371 15.9265 161.479 16.0284C161.589 16.1287 161.693 16.2374 161.791 16.3512C161.889 16.4633 161.983 16.5856 162.07 16.7114C162.156 16.8354 162.24 16.9696 162.317 17.1089C162.393 17.2465 162.465 17.3926 162.53 17.5421C162.595 17.6916 162.655 17.8496 162.71 18.011C162.78 18.2182 162.842 18.4391 162.895 18.6667C162.936 18.8451 162.972 19.0303 163.003 19.2188C163.034 19.4074 163.059 19.6045 163.08 19.8066C163.101 20.0071 163.116 20.2177 163.126 20.4301C163.137 20.6424 163.142 20.865 163.142 21.0892V34.2721C163.142 34.5117 163.339 34.7053 163.579 34.7053H163.584Z" fill="white"/>
<path d="M134.295 34.7053H140.165C140.407 34.7053 140.602 34.51 140.602 34.2721V11.3311C140.602 11.0916 140.405 10.8979 140.165 10.8979H125.417C125.226 10.8979 125.072 10.745 125.072 10.5565V9.61363C125.072 9.40467 125.081 9.19911 125.098 9.00375C125.115 8.80668 125.141 8.61302 125.173 8.43124C125.208 8.24607 125.249 8.06599 125.3 7.89441C125.35 7.72283 125.41 7.55465 125.478 7.39666C125.513 7.31681 125.549 7.23867 125.586 7.16222C125.624 7.08577 125.665 7.01102 125.708 6.93627C125.751 6.86322 125.796 6.79187 125.844 6.72052C125.89 6.65087 125.94 6.58292 125.991 6.51496C126.094 6.38076 126.207 6.25334 126.327 6.13443C126.447 6.01551 126.577 5.90169 126.713 5.79636C126.848 5.69103 126.996 5.5908 127.15 5.49906C127.302 5.40733 127.465 5.32239 127.635 5.24424C127.805 5.16609 127.985 5.09474 128.17 5.03019C128.355 4.96563 128.552 4.90787 128.753 4.85691C128.857 4.82973 128.962 4.80594 129.068 4.78386C129.173 4.76177 129.279 4.74139 129.385 4.7227C129.499 4.70231 129.612 4.68533 129.725 4.67004C129.838 4.65475 129.951 4.63946 130.066 4.62757C130.301 4.60208 130.546 4.5834 130.796 4.5715C130.927 4.56471 131.055 4.55961 131.185 4.55791C131.321 4.55452 131.455 4.55282 131.593 4.55282C131.751 4.55282 131.911 4.55452 132.068 4.55961C132.233 4.56471 132.397 4.56981 132.56 4.5783C132.883 4.59529 133.208 4.62077 133.529 4.65645C133.844 4.69042 134.163 4.73289 134.475 4.78556C134.785 4.83652 135.096 4.89768 135.397 4.96563L135.848 5.06756C135.979 5.09644 136.114 5.06756 136.219 4.98432C136.323 4.90108 136.383 4.77876 136.383 4.64455V1.06173C136.383 0.861263 136.246 0.687983 136.049 0.640416L135.547 0.519799C135.187 0.433159 134.806 0.356711 134.413 0.292156C134.019 0.2276 133.601 0.173238 133.169 0.129068C132.943 0.106984 132.716 0.0882965 132.488 0.0713082C132.26 0.0543199 132.034 0.0424281 131.806 0.0322351C131.557 0.0203433 131.311 0.013548 131.062 0.00845154C130.635 -4.26027e-05 130.21 -0.00174143 129.783 0.00335505C129.605 0.00505388 129.427 0.00845154 129.25 0.013548C129.07 0.0186445 128.892 0.023741 128.712 0.0322351C128.532 0.0407293 128.353 0.0492234 128.175 0.0611152C127.805 0.0848988 127.445 0.115478 127.104 0.151153C126.742 0.190226 126.385 0.237793 126.048 0.292156C125.693 0.349916 125.346 0.417869 125.017 0.492618C124.849 0.531691 124.681 0.572463 124.515 0.618331C124.35 0.662501 124.186 0.710068 124.023 0.761032C123.862 0.811997 123.701 0.86636 123.543 0.92412C123.385 0.98188 123.229 1.04304 123.077 1.10759C122.922 1.17215 122.772 1.2401 122.624 1.31145C122.475 1.3828 122.329 1.45925 122.187 1.5374C122.041 1.61894 121.901 1.70218 121.767 1.78712C121.63 1.87546 121.494 1.9672 121.366 2.06064C121.236 2.15577 121.107 2.2577 120.984 2.35963C120.858 2.46496 120.737 2.57368 120.622 2.68581C120.504 2.79963 120.39 2.91854 120.282 3.03916C120.173 3.16318 120.065 3.29059 119.965 3.4214C119.862 3.55391 119.765 3.69321 119.672 3.83421C119.58 3.97691 119.489 4.12641 119.405 4.27761C119.319 4.4322 119.238 4.59189 119.163 4.75498C119.086 4.92146 119.014 5.09304 118.949 5.26633C118.882 5.4413 118.82 5.62648 118.764 5.81335C118.707 6.00192 118.656 6.19728 118.609 6.39605C118.563 6.59651 118.522 6.80716 118.486 7.01782C118.45 7.23187 118.421 7.45442 118.397 7.67866C118.373 7.90461 118.354 8.14244 118.342 8.38028C118.33 8.62151 118.323 8.87124 118.323 9.12436V10.5565C118.323 10.745 118.169 10.8979 117.978 10.8979H114.407C114.166 10.8979 113.97 11.0933 113.97 11.3311V15.1909C113.97 15.4304 114.167 15.6241 114.407 15.6241H117.978C118.169 15.6241 118.323 15.777 118.323 15.9655V34.2721C118.323 34.5117 118.52 34.7053 118.76 34.7053H124.63C124.872 34.7053 125.067 34.51 125.067 34.2721V15.9655C125.067 15.777 125.221 15.6241 125.412 15.6241H133.508C133.699 15.6241 133.853 15.777 133.853 15.9655V34.2721C133.853 34.5117 134.05 34.7053 134.29 34.7053H134.295Z" fill="white"/>
<path d="M92.2981 10.8979H86.4729C86.2312 10.8979 86.0358 11.0933 86.0358 11.3311V24.9592C86.0358 25.2717 86.0409 25.5809 86.0529 25.8782C86.0649 26.1755 86.0821 26.4711 86.1043 26.7548C86.1283 27.0402 86.1575 27.3205 86.1918 27.5889C86.2261 27.8591 86.2672 28.1258 86.3135 28.3806C86.3598 28.6371 86.4129 28.8885 86.4695 29.1298C86.5209 29.3489 86.5792 29.5664 86.6409 29.7753C86.7095 30.0047 86.7832 30.2306 86.8638 30.4447C86.9426 30.6604 87.0301 30.8711 87.1209 31.0715C87.2118 31.272 87.3095 31.4691 87.4124 31.6576C87.5152 31.8445 87.6249 32.028 87.7381 32.2013C87.8512 32.3745 87.9729 32.5444 88.0981 32.7041C88.2232 32.8638 88.3552 33.0201 88.4924 33.1679C88.6295 33.314 88.7735 33.4567 88.9209 33.5909C89.0701 33.7251 89.2261 33.8542 89.3855 33.9748C89.5449 34.0954 89.713 34.211 89.8861 34.3197C90.0592 34.4284 90.2392 34.5321 90.421 34.6255C90.6027 34.7189 90.7964 34.809 90.9935 34.8922C91.1872 34.9737 91.393 35.0502 91.6021 35.1198C91.8113 35.1895 92.029 35.2541 92.2484 35.3101C92.4695 35.3662 92.6993 35.4171 92.9324 35.4613C93.1638 35.5055 93.4073 35.5429 93.6541 35.5734C93.8993 35.604 94.1547 35.6295 94.4136 35.6465C94.6741 35.6635 94.9416 35.6754 95.2107 35.6805C95.2793 35.6805 95.3479 35.6822 95.4164 35.6822C95.4919 35.6822 95.5673 35.6822 95.6427 35.6822C95.8022 35.6822 95.9616 35.6771 96.121 35.6703C96.4347 35.6567 96.7433 35.6329 97.0382 35.6006C97.333 35.5666 97.6245 35.5242 97.9039 35.4698C98.1816 35.4171 98.4559 35.3526 98.7182 35.2778C98.9788 35.2048 99.2342 35.1198 99.481 35.0264C99.7262 34.933 99.9645 34.8276 100.191 34.7155C100.417 34.6034 100.638 34.4777 100.849 34.3452C100.954 34.2789 101.058 34.2093 101.159 34.1379C101.261 34.0666 101.36 33.9918 101.456 33.9154C101.648 33.7625 101.837 33.5994 102.013 33.4261C102.102 33.3395 102.188 33.2511 102.272 33.1594C102.356 33.0677 102.438 32.9742 102.519 32.8774C102.599 32.7806 102.677 32.682 102.752 32.5801C102.827 32.4782 102.901 32.3745 102.973 32.2675C103.117 32.0552 103.253 31.8292 103.378 31.5982L103.469 31.43C103.53 31.3162 103.652 31.2482 103.779 31.2499C103.909 31.2533 104.026 31.3264 104.082 31.4436L105.486 34.3367C105.594 34.5592 105.826 34.7036 106.076 34.7036H109.666C109.907 34.7036 110.103 34.5083 110.103 34.2704V11.3311C110.103 11.0916 109.906 10.8979 109.666 10.8979H103.796C103.554 10.8979 103.359 11.0933 103.359 11.3311V24.4257C103.359 24.6687 103.354 24.9082 103.342 25.1358C103.33 25.3669 103.313 25.5945 103.29 25.8086C103.266 26.026 103.237 26.2384 103.203 26.4405C103.169 26.6427 103.126 26.8415 103.079 27.03C103.026 27.2441 102.965 27.453 102.894 27.6501C102.834 27.8234 102.766 27.9899 102.694 28.1479C102.62 28.3058 102.541 28.4604 102.455 28.6048C102.37 28.7509 102.277 28.8902 102.178 29.021C102.08 29.1519 101.974 29.2776 101.862 29.3948C101.753 29.5103 101.634 29.6207 101.511 29.7227C101.389 29.8229 101.259 29.9197 101.122 30.0064C100.986 30.093 100.842 30.1746 100.695 30.2459C100.547 30.319 100.391 30.3835 100.232 30.4413C100.074 30.4973 99.9079 30.5483 99.7365 30.5908C99.5668 30.6332 99.3885 30.6689 99.2068 30.6961C99.025 30.7233 98.8348 30.7454 98.641 30.759C98.4439 30.7725 98.2365 30.7793 98.0308 30.7793C97.8799 30.7793 97.729 30.7742 97.5833 30.7657C97.4427 30.7573 97.3022 30.7454 97.165 30.7301C97.0313 30.7148 96.8976 30.6944 96.7707 30.6723C96.6439 30.6502 96.5187 30.623 96.3953 30.5942C96.157 30.5347 95.9273 30.4634 95.713 30.3767C95.6084 30.3342 95.5039 30.2901 95.4044 30.2408C95.3067 30.1932 95.2107 30.1423 95.1181 30.0896C95.0256 30.0352 94.9364 29.9792 94.8524 29.9231C94.7684 29.8671 94.6879 29.8059 94.609 29.7431C94.4564 29.6224 94.3107 29.4882 94.177 29.3472C94.0484 29.2113 93.9267 29.0652 93.8153 28.9089C93.709 28.7628 93.6096 28.6048 93.5204 28.4417C93.4347 28.2889 93.3558 28.1258 93.2856 27.9576C93.2187 27.8013 93.157 27.6348 93.1038 27.4649C93.0524 27.3069 93.0078 27.1404 92.9667 26.9706C92.929 26.8143 92.8964 26.6512 92.869 26.4864C92.8433 26.3369 92.821 26.1806 92.8038 26.0226C92.7867 25.8782 92.7747 25.7321 92.7644 25.586C92.7541 25.4518 92.749 25.3176 92.7438 25.1851C92.7404 25.0662 92.737 24.949 92.7353 24.83C92.7353 24.7247 92.7353 24.6194 92.7353 24.5141V11.3311C92.7353 11.0916 92.5381 10.8979 92.2981 10.8979Z" fill="white"/>
<path d="M61.2744 34.0581L61.6241 34.2025C61.9378 34.3316 62.2618 34.4539 62.5892 34.5678C62.9201 34.6816 63.2647 34.7903 63.6144 34.8905C63.9624 34.9891 64.3258 35.0825 64.6944 35.1657C65.0578 35.249 65.4367 35.3254 65.819 35.3934C66.1996 35.4613 66.5973 35.5225 67.0019 35.5769C67.2093 35.604 67.4184 35.6295 67.6276 35.6533C67.8367 35.6754 68.0442 35.6975 68.2533 35.7162C68.471 35.7365 68.6904 35.7535 68.9099 35.7688C69.1293 35.7841 69.347 35.7977 69.5665 35.8096C69.7962 35.8215 70.0259 35.8317 70.2539 35.8385C70.4836 35.847 70.7133 35.8521 70.943 35.8572C71.1813 35.8623 71.4179 35.864 71.6562 35.864H71.9648C72.0608 35.8623 72.1568 35.8606 72.2545 35.8589C72.6351 35.8504 73.0105 35.8317 73.3739 35.8028C73.7339 35.7739 74.0905 35.7365 74.4317 35.689C74.7677 35.6414 75.1002 35.5854 75.4174 35.5191C75.7345 35.4528 76.0448 35.3781 76.3397 35.2949C76.6362 35.2116 76.9277 35.1165 77.2037 35.0145C77.4797 34.9126 77.7471 34.8005 78.0008 34.6799C78.2511 34.561 78.4946 34.4318 78.726 34.2959C78.954 34.16 79.1751 34.0139 79.3826 33.861C79.5008 33.7744 79.6157 33.6844 79.7254 33.5926C79.9209 33.4295 80.106 33.258 80.2774 33.0796C80.4506 32.9012 80.6117 32.7109 80.7609 32.5173C80.91 32.3236 81.0489 32.1163 81.1757 31.904C81.3026 31.6916 81.4174 31.4691 81.5186 31.2431C81.6214 31.0155 81.7123 30.7777 81.7894 30.5364C81.8683 30.2935 81.9334 30.0404 81.9866 29.7822C82.0397 29.5222 82.0826 29.2521 82.11 28.9769C82.1392 28.7017 82.1546 28.4146 82.158 28.1258C82.158 28.0578 82.158 27.9899 82.158 27.9219C82.158 27.8574 82.1563 27.7928 82.1529 27.7283C82.1477 27.5975 82.1409 27.4667 82.1289 27.3341C82.1169 27.1948 82.0997 27.0589 82.0792 26.9281C82.0569 26.7854 82.0294 26.6444 81.9969 26.5085C81.954 26.325 81.9009 26.145 81.8409 25.9717C81.7894 25.8239 81.7312 25.6778 81.666 25.5368C81.5992 25.389 81.5237 25.2429 81.4414 25.1002C81.3557 24.9524 81.2614 24.8046 81.1603 24.6619C81.0557 24.5141 80.9392 24.3663 80.8157 24.2253C80.6871 24.0775 80.5483 23.9314 80.4026 23.7921C80.25 23.646 80.0854 23.5016 79.9123 23.364C79.8197 23.2892 79.7254 23.2179 79.6311 23.1482C79.5351 23.0786 79.4391 23.0106 79.3397 22.9427C79.2111 22.8543 79.0791 22.7711 78.9454 22.6895C78.8117 22.608 78.6763 22.5299 78.5391 22.4551C78.294 22.3192 78.03 22.1867 77.7591 22.0593C77.6134 21.9913 77.4677 21.9268 77.3203 21.8622C77.1728 21.7994 77.0237 21.7382 76.8745 21.6787C76.71 21.6142 76.5454 21.5513 76.3791 21.4919C76.2128 21.4324 76.0465 21.3747 75.8785 21.3186C75.6985 21.2591 75.5185 21.2014 75.3368 21.147L74.8157 20.9941C74.5791 20.9245 74.3408 20.8548 74.1025 20.7869C73.8745 20.7223 73.6465 20.6577 73.4185 20.5966C73.2025 20.5371 72.9865 20.4777 72.7688 20.4199L72.0351 20.2245C71.8431 20.1736 71.6511 20.1226 71.459 20.07C71.3065 20.0292 71.1539 19.9867 70.9996 19.9459C70.8539 19.9069 70.7099 19.8661 70.5659 19.8253C70.4305 19.7862 70.295 19.7472 70.1596 19.7064C70.0328 19.6673 69.9042 19.6283 69.7773 19.5875C69.6573 19.5484 69.5356 19.5076 69.4173 19.4652C69.3042 19.4244 69.1927 19.3836 69.0813 19.3395C68.9767 19.2987 68.8739 19.2545 68.7727 19.2103C68.6802 19.1679 68.5859 19.1237 68.495 19.0778C68.4504 19.0541 68.4059 19.0303 68.3613 19.0048C68.2756 18.9555 68.1916 18.9063 68.1144 18.8536C68.0356 18.8009 67.9602 18.7449 67.8916 18.6888C67.8213 18.631 67.7544 18.5699 67.6944 18.5087C67.6327 18.4459 67.5761 18.3796 67.5264 18.3117C67.475 18.2437 67.4287 18.1724 67.3893 18.0976C67.3499 18.0246 67.3139 17.9464 67.2847 17.8666C67.2556 17.7867 67.2316 17.7035 67.2127 17.6168C67.1939 17.5319 67.1819 17.4419 67.175 17.3518C67.1716 17.306 67.1699 17.2584 67.1681 17.2125C67.1681 17.1887 67.1681 17.1633 67.1681 17.1395C67.1681 17.114 67.1681 17.0902 67.1699 17.0647C67.1733 16.9645 67.1836 16.866 67.199 16.7708C67.2144 16.674 67.235 16.5806 67.2607 16.4888C67.2864 16.3971 67.319 16.307 67.3567 16.2204C67.3944 16.1355 67.4373 16.0505 67.4853 15.969C67.5333 15.8891 67.5864 15.8093 67.6447 15.7345C67.703 15.6598 67.7664 15.5867 67.835 15.5171C67.9019 15.4491 67.9773 15.3812 68.0544 15.3183C68.1316 15.2555 68.2156 15.1943 68.303 15.1383C68.4059 15.072 68.5156 15.0074 68.6304 14.948C68.7282 14.897 68.8327 14.8495 68.939 14.8053C69.0453 14.7611 69.1585 14.7186 69.275 14.6796C69.3916 14.6405 69.5133 14.6048 69.6367 14.5725C69.7653 14.5386 69.8939 14.508 70.0242 14.4825C70.1613 14.4536 70.2985 14.4298 70.4373 14.4095C70.5813 14.3874 70.727 14.3687 70.871 14.3534C71.0236 14.3364 71.1762 14.3245 71.3305 14.3143C71.4933 14.3041 71.6562 14.2956 71.8191 14.2922C71.9031 14.2905 71.9871 14.2888 72.0728 14.2871H72.2013H72.4431C72.7979 14.2922 73.1631 14.3075 73.5248 14.3347C73.8676 14.3602 74.2191 14.3959 74.5688 14.44C74.8997 14.4825 75.2391 14.5352 75.5751 14.5963C75.8888 14.6524 76.2094 14.7169 76.5265 14.79C76.8197 14.8562 77.1145 14.9293 77.4043 15.0074C77.6717 15.0788 77.9443 15.1569 78.21 15.2402C78.4586 15.3166 78.7037 15.3965 78.942 15.478C79.1563 15.5528 79.3706 15.6292 79.5831 15.7091C79.7631 15.777 79.9414 15.8484 80.1197 15.9197L80.5191 16.0828C80.6563 16.1389 80.8054 16.1236 80.9289 16.042C81.0523 15.9605 81.1226 15.8297 81.1226 15.6819V11.9631C81.1226 11.6947 80.9529 11.4518 80.7009 11.3567L80.3254 11.2157C79.7203 10.988 79.0774 10.7859 78.4157 10.6109C77.7505 10.4359 77.0494 10.2864 76.3311 10.1658C75.6128 10.0452 74.8602 9.95173 74.0939 9.88888C73.3259 9.82432 72.5253 9.78865 71.7128 9.78015C71.6065 9.78015 71.5019 9.78015 71.3956 9.78015H71.2362C71.135 9.78015 71.0339 9.78185 70.9328 9.78355C70.7339 9.78695 70.535 9.79374 70.3362 9.80224C69.9453 9.81922 69.563 9.84641 69.1962 9.88208C68.831 9.91776 68.471 9.96362 68.1264 10.0197C67.7836 10.074 67.4493 10.1403 67.1287 10.2134C66.767 10.2966 66.4156 10.3934 66.0864 10.5005C65.795 10.5956 65.5121 10.6992 65.2447 10.8113C64.9773 10.9235 64.7201 11.0458 64.4767 11.1766C64.235 11.3074 64.0018 11.4467 63.7841 11.5945C63.5681 11.7406 63.3607 11.8986 63.167 12.0634C63.071 12.1449 62.9767 12.2299 62.8858 12.3165C62.7967 12.4031 62.7092 12.4915 62.6235 12.5832C62.4555 12.765 62.2995 12.9553 62.1572 13.154C62.0852 13.2526 62.0167 13.3545 61.9515 13.4581C61.8864 13.5617 61.8229 13.6688 61.7647 13.7741C61.7064 13.8811 61.6498 13.9915 61.5967 14.1037C61.5435 14.2158 61.4938 14.3296 61.4492 14.4451C61.4029 14.5624 61.3601 14.6796 61.3207 14.8002C61.2812 14.9208 61.2435 15.0448 61.2109 15.1671C61.1441 15.4152 61.0892 15.6768 61.0498 15.9401C61.0087 16.2051 60.9812 16.482 60.9675 16.764C60.9607 16.9084 60.9572 17.0511 60.9572 17.1955C60.9572 17.2703 60.9572 17.345 60.9607 17.4198C60.9641 17.5693 60.9727 17.7154 60.9847 17.8564C60.9984 18.0076 61.0172 18.1571 61.0412 18.3015C61.0669 18.4544 61.0978 18.6056 61.1355 18.7517C61.1749 18.9063 61.2229 19.0592 61.2761 19.2069C61.3327 19.3632 61.3978 19.5161 61.4698 19.6656C61.5452 19.8219 61.6309 19.9765 61.7235 20.126C61.8212 20.2823 61.9292 20.4386 62.0458 20.5881C62.1675 20.7444 62.303 20.899 62.4452 21.0502C62.5927 21.2048 62.7555 21.3594 62.9304 21.5089C63.1087 21.6635 63.3024 21.8163 63.5081 21.9641C63.6161 22.0423 63.7241 22.117 63.8338 22.1901C63.9504 22.2665 64.067 22.3413 64.187 22.4126C64.3121 22.4891 64.439 22.5621 64.5675 22.6335C64.7218 22.7201 64.8864 22.8068 65.0544 22.8917C65.3441 23.0378 65.6527 23.1822 65.9716 23.3181C66.3007 23.4591 66.6521 23.5984 67.0139 23.7309C67.3876 23.8668 67.7819 24.001 68.1899 24.1268C68.4024 24.193 68.615 24.2559 68.8293 24.317C68.9407 24.3493 69.0522 24.3799 69.1636 24.4105L69.4156 24.4784L69.407 24.6075L69.4396 24.4835L71.1213 24.915C71.3116 24.9643 71.5036 25.0135 71.6939 25.0645C71.8739 25.1121 72.0539 25.1613 72.2322 25.2106C72.4002 25.2565 72.5665 25.304 72.7345 25.3533C72.8905 25.3992 73.0482 25.4467 73.2025 25.4977C73.3499 25.5453 73.4956 25.5945 73.6414 25.6472C73.7768 25.6965 73.9122 25.7474 74.0459 25.8018C74.1694 25.8528 74.2928 25.9054 74.4145 25.9632C74.5585 26.0311 74.6854 26.0991 74.8071 26.1687C74.9117 26.2299 75.0128 26.2945 75.1037 26.359C75.1979 26.4253 75.2854 26.4966 75.3642 26.5663C75.4465 26.641 75.5219 26.7175 75.5888 26.7956C75.6574 26.8755 75.7191 26.9604 75.774 27.0487C75.8288 27.1371 75.8768 27.2305 75.9162 27.3239C75.9557 27.4191 75.99 27.5193 76.0157 27.6229C76.0414 27.7249 76.0585 27.8336 76.0705 27.944C76.0757 28.0001 76.0791 28.0561 76.0808 28.1122C76.0808 28.1411 76.0808 28.17 76.0808 28.2005C76.0808 28.226 76.0808 28.2515 76.0808 28.277C76.0774 28.3789 76.0654 28.4826 76.0448 28.5811C76.026 28.6796 75.9985 28.7781 75.9625 28.8733C75.9282 28.9684 75.8854 29.0619 75.8374 29.1519C75.7894 29.2402 75.7328 29.3286 75.6711 29.4152C75.6111 29.4984 75.5425 29.58 75.4671 29.6598C75.3934 29.738 75.3128 29.8144 75.2271 29.8858C75.1414 29.9588 75.0488 30.0285 74.9545 30.0947C74.8585 30.161 74.7557 30.2255 74.6494 30.285C74.5722 30.3292 74.4951 30.3699 74.4162 30.409C74.3031 30.4651 74.1848 30.5177 74.0631 30.567C73.9414 30.6163 73.8128 30.6638 73.6825 30.7063C73.5505 30.7505 73.4116 30.7913 73.2711 30.8269C73.1288 30.8643 72.9831 30.8983 72.8356 30.9289C72.6865 30.9594 72.5322 30.9866 72.3762 31.0104C72.2202 31.0342 72.0573 31.0529 71.8945 31.0699C71.7282 31.0869 71.5602 31.0987 71.3905 31.1072C71.219 31.1157 71.0442 31.1208 70.8676 31.1225C70.799 31.1225 70.7322 31.1225 70.6636 31.1225C70.5659 31.1225 70.4665 31.1208 70.3688 31.1174C70.175 31.1123 69.9796 31.1038 69.7859 31.0936C69.4019 31.0716 69.0076 31.0376 68.6099 30.9917C68.2276 30.9475 67.8333 30.8915 67.4407 30.8252C67.0636 30.7624 66.6813 30.6893 66.3024 30.6061C66.047 30.5517 65.7847 30.4906 65.5241 30.426C65.1761 30.3394 64.8264 30.2459 64.4818 30.1457C64.1544 30.0506 63.8287 29.9486 63.5132 29.8433C63.2132 29.7431 62.9167 29.6378 62.6355 29.5307C62.5018 29.4798 62.3664 29.4271 62.2344 29.3727C62.1109 29.3235 61.9875 29.2708 61.8641 29.2181L61.4801 29.0517C61.4218 29.0262 61.3635 29.0143 61.3035 29.0143C61.2212 29.0143 61.1389 29.0381 61.0652 29.0856C60.9401 29.1672 60.8664 29.2997 60.8664 29.4492V33.4482C60.8664 33.7098 61.0241 33.9443 61.2692 34.0462L61.2744 34.0581Z" fill="white"/>
<path d="M10.3801 39H17.5939C20.5751 39 23.2151 37.0922 24.1254 34.279C24.278 33.8084 24.4305 33.3378 24.5831 32.8673C24.6877 32.5462 24.7923 32.2234 24.8951 31.9023C25.9306 28.7017 26.9677 25.5011 28.0032 22.3022C28.7043 20.1396 30.1906 18.3117 32.1758 17.1769C26.606 20.3639 21.0345 23.5509 15.4647 26.7379C13.9887 27.5822 12.883 28.9396 12.3636 30.5484C12.1133 31.3213 11.863 32.096 11.6127 32.869C11.0281 34.6765 10.4418 36.4841 9.85725 38.2916C9.74411 38.6433 10.0081 39.0017 10.3801 39.0017V39Z" fill="#0075C9"/>
<path d="M0.548578 24.6619H7.76237C10.7435 24.6619 13.3836 22.7541 14.2939 19.9409C14.6179 18.9419 14.9402 17.9447 15.2642 16.9458C16.0973 14.3755 16.9287 11.8035 17.7619 9.23314C18.9876 5.44815 22.5379 2.88123 26.5494 2.88123H20.1894C12.2401 2.88123 5.19948 7.96922 2.77203 15.4695C2.53374 16.2034 2.29717 16.939 2.05888 17.6729C1.38173 19.7659 0.704579 21.8571 0.0257152 23.9501C-0.0874288 24.3018 0.176574 24.6602 0.548578 24.6602V24.6619Z" fill="#0075C9"/>
<path d="M48.0451 2.88293H26.5494C22.5397 2.88293 18.9876 5.44986 17.7619 9.23485C16.9287 11.8052 16.0973 14.3772 15.2642 16.9475C16.2962 13.7588 19.2876 11.5979 22.6665 11.5979H42.6399C44.6268 11.5979 46.3873 10.3255 46.9942 8.44999C47.5188 6.83101 48.0416 5.21203 48.5662 3.59474C48.6794 3.24309 48.4154 2.88463 48.0434 2.88463L48.0451 2.88293Z" fill="url(#paint0_linear_65_1266)"/>
<path d="M45.2319 15.9486H36.7924C35.1724 15.9486 33.5815 16.3716 32.1775 17.1735C30.1923 18.31 28.7043 20.1362 28.0049 22.2988C26.9694 25.4994 25.9323 28.7 24.8968 31.8989C26.294 27.5856 30.3415 24.6602 34.9118 24.6602H39.8284C41.8153 24.6602 43.5759 23.3878 44.1828 21.5123C44.7073 19.8933 45.2302 18.2743 45.7548 16.657C45.8679 16.3054 45.6039 15.9469 45.2319 15.9469V15.9486Z" fill="url(#paint1_linear_65_1266)"/>
</g>
<defs>
<linearGradient id="paint0_linear_65_1266" x1="19.1659" y1="5.3921" x2="44.6801" y2="14.7621" gradientUnits="userSpaceOnUse">
<stop stop-color="#201747"/>
<stop offset="0.12" stop-color="#172E68"/>
<stop offset="0.28" stop-color="#0E498D"/>
<stop offset="0.42" stop-color="#085DA8"/>
<stop offset="0.55" stop-color="#0468B8"/>
<stop offset="0.65" stop-color="#036DBE"/>
<stop offset="0.79" stop-color="#0072C5"/>
<stop offset="1" stop-color="#0075C9"/>
</linearGradient>
<linearGradient id="paint1_linear_65_1266" x1="27.5934" y1="21.9302" x2="43.1899" y2="26.1477" gradientUnits="userSpaceOnUse">
<stop stop-color="#201747"/>
<stop offset="0.03" stop-color="#1D1C4F"/>
<stop offset="0.16" stop-color="#143774"/>
<stop offset="0.31" stop-color="#0D4E93"/>
<stop offset="0.46" stop-color="#075FAA"/>
<stop offset="0.61" stop-color="#036BBB"/>
<stop offset="0.79" stop-color="#0072C5"/>
<stop offset="1" stop-color="#0075C9"/>
</linearGradient>
<clipPath id="clip0_65_1266">
<rect width="272" height="39" fill="white"/>
</clipPath>
</defs>
</svg>
