<?xml version="1.0" encoding="utf-8"?>
<!-- Generator: Adobe Illustrator 23.0.5, SVG Export Plug-In . SVG Version: 6.00 Build 0)  -->
<svg version="1.1" id="Layer_1" xmlns="http://www.w3.org/2000/svg" xmlns:xlink="http://www.w3.org/1999/xlink" x="0px" y="0px"
	 viewBox="0 0 96.5 96.4" style="enable-background:new 0 0 96.5 96.4;" xml:space="preserve">
<style type="text/css">
	.st0{fill:#FFFFFF;}
</style>
<path class="st0" d="M20,30.2c1,2,3.2,2.1,5.3,0.9c2.1-1.2,4.2-3.7,4.5-6.6s-1.1-6.3-3.1-7s-4.7,1.2-6.1,4S19,28.2,20,30.2"/>
<path class="st0" d="M23.4,67c2.2-0.3,3-2.4,2.5-4.8c-0.5-2.4-2.2-5.1-4.9-6.3s-6.3-0.9-7.7,0.8c-1.3,1.7-0.3,4.8,2,7.1
	C17.6,66,21.2,67.4,23.4,67"/>
<path class="st0" d="M59.5,75.2c0.4-2.2-1.4-3.6-3.8-3.9s-5.6,0.5-7.6,2.7s-2.8,5.8-1.6,7.5s4.5,1.8,7.3,0.3S59.1,77.4,59.5,75.2"/>
<path class="st0" d="M78.4,43.4c-2-1-3.8,0.2-4.9,2.4s-1.2,5.5,0.2,8c1.5,2.6,4.6,4.4,6.7,3.8s3.1-3.7,2.6-6.8
	C82.5,47.7,80.4,44.4,78.4,43.4"/>
<path class="st0" d="M54,15.6c-1.6,1.6-1,3.7,0.8,5.4s4.8,2.8,7.7,2.2c2.9-0.6,5.6-3,5.7-5.2s-2.6-4.1-5.7-4.6
	C59.3,13,55.6,14,54,15.6"/>
<path class="st0" d="M37.3,4.6C32,4.9,26.6,6.1,22,8.8c-5.5,3.3-9.5,8.8-12.1,14.5c-2.4,5.4-4.3,12.5-3.6,18.6
	c1.1,9,7.3,8.5,14.2,5.3c5.9-2.8,10.9-6.5,16-10.3c2.8-2.1,5.5-4.2,8.3-6.4c-0.9-0.7-1.9-1.5-2.8-2.2c-1.3-1.1-2.6-2.2-3.8-3.4
	c-1.5,1.2-3,2.3-4.6,3.4c-2.9,2.2-5.8,4.3-9.2,5.8c-4,1.8-7.5,2-8.1-3.1c-0.8-6.5,3.2-15.4,9.1-18.7c1.8-1,3.9-1.7,6-2
	c0,0,0-0.1,0.1-0.1c0.2-0.6,0.5-1.1,0.9-1.7c0.4-0.5,0.8-1,1.3-1.5s1.1-0.9,1.7-1.3c0.3-0.2,0.6-0.4,1-0.6C36.7,4.9,37,4.7,37.3,4.6
	"/>
<path class="st0" d="M4.4,42.7C3,47.8,2.5,53.3,3.7,58.5c1.4,6.3,5.4,11.8,10,15.9c4.3,4,10.6,7.9,16.5,9.1
	c8.9,1.8,10.4-4.3,9.4-11.9c-0.8-6.4-2.8-12.4-4.9-18.4c-1.1-3.3-2.3-6.6-3.5-9.8c-1,0.7-2,1.3-3,2c-1.4,0.9-2.9,1.7-4.4,2.5
	c0.6,1.8,1.2,3.6,1.8,5.4c1.2,3.5,2.3,6.9,2.7,10.6c0.5,4.4-0.4,7.8-5.5,6.7c-6.4-1.3-13.7-7.8-15-14.4c-0.4-2.1-0.4-4.2,0-6.3
	l-0.1-0.1c-0.5-0.4-0.9-0.8-1.3-1.3c-0.4-0.5-0.7-1.1-1-1.7c-0.3-0.6-0.5-1.3-0.7-2c-0.1-0.4-0.2-0.7-0.3-1.1
	C4.5,43.3,4.4,43,4.4,42.7"/>
<path class="st0" d="M38.3,84.5c1.9,1,3.9,1.7,6,1.9c6.7,0.8,15.1-4.1,18.4-9.8c2.5-4.5-0.4-6.4-4.7-7.3c-3.6-0.7-7.2-0.7-10.9-0.7
	c-1.9,0-3.8,0-5.7,0.1c-0.3-1.7-0.7-3.3-1.1-4.9c-0.3-1.2-0.6-2.3-0.9-3.4c3.5-0.2,7-0.2,10.4-0.3c6.4-0.1,12.7-0.2,19,1.1
	c7.5,1.4,12.9,4.7,8.4,12.6c-3,5.3-8.7,10-13.8,12.9c-5.4,3.1-11.8,5.2-18.3,4.6c-5.3-0.5-10.4-2.7-14.8-5.6
	c0.3,0.1,0.6,0.1,0.9,0.1c0.4,0,0.8,0.1,1.1,0.1c0.7,0,1.4,0,2.1-0.1c0.7-0.1,1.3-0.2,1.9-0.4c0.6-0.2,1.2-0.5,1.7-0.8
	C38.2,84.6,38.2,84.6,38.3,84.5"/>
<path class="st0" d="M79.5,74.3c4.1-3.3,7.8-7.5,9.8-12.4c2.6-5.9,2.5-12.7,1.2-18.8c-1.2-5.8-3.9-12.6-8-17.1
	c-6.2-6.7-10.9-2.6-14.6,4.1c-3.1,5.7-5,11.7-6.9,17.8c-1,3.3-2,6.7-2.9,10c0.7,0,1.4,0,2.1,0.1c2.2,0.1,4.3,0.3,6.5,0.6
	c0.5-1.8,1.1-3.6,1.7-5.5c1.1-3.5,2.2-6.9,4-10.1c2.2-3.8,4.9-6,8.4-2.2c4.4,4.8,6.4,14.4,3.6,20.5c-0.9,1.9-2.2,3.6-3.7,5.1
	c0.1,0.2,0.1,0.4,0.2,0.6c0.1,0.3,0.1,0.7,0.1,1c0.1,0.7,0,1.3-0.1,1.9c-0.1,0.7-0.3,1.4-0.5,2c-0.2,0.7-0.6,1.5-0.9,2.2
	C79.5,74.1,79.5,74.2,79.5,74.3"/>
<path class="st0" d="M83.7,24.1c-1.9-4.9-4.7-9.7-8.7-13.2c-4.8-4.3-11.3-6.3-17.5-7c-5.8-0.6-13.2-0.2-18.8,2.3
	c-8.3,3.8-5.8,9.6-0.6,15.2c4.4,4.7,9.6,8.4,14.8,12c2.9,2,5.7,4,8.6,5.9c0.4-1.1,0.8-2.2,1.2-3.3c0.6-1.6,1.3-3.1,2-4.6
	c-1.6-1.1-3.1-2.2-4.7-3.3c-3-2.1-5.9-4.2-8.4-7c-3-3.2-4.2-6.5,0.5-8.7c6-2.7,15.6-1.7,20.6,2.9c1.5,1.4,2.8,3.2,3.8,5.1h0.1
	c0.6,0,1.2,0.1,1.8,0.3c0.6,0.2,1.2,0.5,1.8,0.8c0.6,0.3,1.2,0.7,1.8,1.2c0.3,0.2,0.6,0.5,0.9,0.7C83.2,23.6,83.5,23.9,83.7,24.1"/>
</svg>
