<?xml version="1.0" encoding="UTF-8"?><svg id="Layer_1" xmlns="http://www.w3.org/2000/svg" viewBox="0 0 985.27 138.49"><defs><style>.cls-1{fill:#fff;}</style></defs><path class="cls-1" d="M608.49,97.24c-3.03,0-6.51-.84-8.65-2.08l1.29-2.58c1.69,1.01,4.83,1.91,7.3,1.91,4.44,0,7.41-2.19,7.41-5.61,0-3.65-2.92-5-6.85-6.45-4.49-1.69-8.37-3.54-8.37-8.76,0-4.38,3.48-7.8,9.6-7.8,3.2,0,6.06,.9,7.97,2.08l-1.29,2.47c-1.4-.95-3.98-1.85-6.45-1.85-4.1,0-6.46,2.3-6.46,5.11,0,3.65,2.75,4.83,6.46,6.23,4.71,1.79,8.81,3.53,8.81,9.04,0,5-4.1,8.31-10.78,8.31"/><path class="cls-1" d="M634.97,97.24c-7.13,0-11.17-3.31-11.17-10.33v-20.4c0-.05,.04-.09,.1-.09h3.12c.05,0,.1,.04,.1,.09v20.45c0,5.05,2.64,7.47,7.86,7.47,4,0,7.24-3.25,7.24-7.26v-20.66c0-.05,.04-.09,.09-.09h3.12c.05,0,.09,.04,.09,.09v20.07c0,5.79-4.63,10.63-10.42,10.66h-.13"/><path class="cls-1" d="M664.6,57.45c-3.48,0-6.01,1.46-6.01,5.22v3.76h6.29v4.6h-6.29v25.65h-6v-25.65h-3.98v-4.6h3.98v-3.76c0-6.96,4.71-10.16,10.94-10.16,.62,0,1.46,.06,1.91,.11v4.83h-.84Z"/><path class="cls-1" d="M678.02,97.3c-8.7,0-13.08-3.54-13.08-9.49,0-8.42,8.98-9.94,18.13-10.44v-1.91c0-3.82-2.53-5.16-6.4-5.16-2.86,0-6.34,.9-8.36,1.85l-1.57-4.21c2.41-1.07,6.51-2.13,10.56-2.13,7.24,0,11.62,2.81,11.62,10.27v19.08c-2.19,1.18-6.63,2.13-10.89,2.13m5.05-15.83c-6.18,.34-12.35,.84-12.35,6.23,0,3.2,2.47,5.16,7.13,5.16,1.96,0,4.27-.34,5.22-.78v-10.61Z"/><path class="cls-1" d="M705.62,97.3c-6.74,0-13.3-4.83-13.3-15.77s6.57-15.72,13.3-15.72c3.31,0,5.9,.84,7.75,2.08l-2.02,4.43c-1.23-.9-3.09-1.46-4.94-1.46-4.04,0-7.75,3.2-7.75,10.61s3.82,10.67,7.75,10.67c1.85,0,3.71-.56,4.94-1.46l2.02,4.55c-1.91,1.29-4.43,2.08-7.75,2.08"/><path class="cls-1" d="M726.57,97.08c-5.33,0-8.31-2.98-8.31-8.87v-17.18h-4.1v-4.6h4.1v-7.02l6.01-1.85v8.87h6.12v4.6h-6.12v16.84c0,2.75,1.8,3.82,4.04,3.82,.73,0,1.57-.17,2.07-.39v5.11c-.73,.34-2.24,.67-3.82,.67"/><path class="cls-1" d="M745.22,97.3c-7.97,0-12.24-3.31-12.24-10.89v-19.99h6.12v20.1c0,3.87,2.07,5.73,6.12,5.73h.07c2.96,0,5.32-2.47,5.32-5.43v-20.39h6.12v19.28c0,6.32-5.05,11.57-11.37,11.59h-.14"/><path class="cls-1" d="M775.1,71.14c-.9-.22-1.96-.34-3.09-.34-1.74,0-3.59,.28-4.77,.79v25.09h-6.12v-28.74c2.92-1.24,7.24-2.13,11.73-2.13,1.35,0,2.53,.06,3.43,.22l-1.18,5.11Z"/><path class="cls-1" d="M789.53,97.3c-8.7,0-13.08-3.54-13.08-9.49,0-8.42,8.98-9.94,18.13-10.44v-1.91c0-3.82-2.53-5.16-6.4-5.16-2.86,0-6.34,.9-8.36,1.85l-1.57-4.21c2.41-1.07,6.51-2.13,10.56-2.13,7.24,0,11.62,2.81,11.62,10.27v19.08c-2.19,1.18-6.63,2.13-10.89,2.13m5.05-15.83c-6.18,.34-12.35,.84-12.35,6.23,0,3.2,2.47,5.16,7.13,5.16,1.96,0,4.27-.34,5.22-.78v-10.61Z"/><path class="cls-1" d="M818.55,97.36c-9.77,0-15.1-5.78-15.1-15.61s4.89-15.61,14.15-15.61c1.63,0,3.37,.28,4.32,.62v-14.15h7.69v42.55c-2.19,1.18-6.45,2.19-11.06,2.19m3.37-24.87c-.62-.28-2.19-.56-3.54-.56-4.77,0-7.3,3.98-7.3,9.71,0,6.12,2.58,9.71,7.3,9.71,1.35,0,2.92-.28,3.54-.62v-18.24Z"/><path class="cls-1" d="M837.67,61.6c-2.42,0-4.38-1.85-4.38-4.15s1.96-4.1,4.38-4.1,4.38,1.8,4.38,4.1-1.96,4.15-4.38,4.15m-3.82,4.83h7.63v30.26h-7.63v-30.26Z"/><path class="cls-1" d="M858.4,109.31c-4.83,0-8.76-1.01-11.51-2.36l2.19-6.01c2.02,1.07,5.16,1.85,8.53,1.85,4.49,0,6.57-2.3,6.57-6.51v-1.85c-1.46,.68-3.65,1.07-5.61,1.07-7.69,0-12.97-5.33-12.97-14.42,0-10.22,6-15.33,15.49-15.33,4.27,0,8.2,.96,10.67,2.19v28.35c0,8.53-5.22,13.02-13.36,13.02m5.78-37.05c-.78-.34-2.19-.62-3.76-.62-4.21,0-7.18,2.81-7.18,9.15,0,5.95,2.75,8.92,6.96,8.92,1.4,0,3.09-.39,3.98-.84v-16.61Z"/><path class="cls-1" d="M879.71,61.6c-2.41,0-4.38-1.85-4.38-4.15s1.96-4.1,4.38-4.1,4.38,1.8,4.38,4.1-1.96,4.15-4.38,4.15m-3.82,4.83h7.63v30.26h-7.63v-30.26Z"/><path class="cls-1" d="M900.27,97.13c-5.84,0-8.59-3.2-8.59-9.54v-15.43h-3.87v-5.73h3.87v-6.74l7.52-2.19v8.92h5.67v5.73h-5.67v14.93c0,2.47,1.51,3.31,3.48,3.31,.78,0,1.68-.22,2.19-.45v6.34c-.9,.45-2.75,.84-4.6,.84"/><path class="cls-1" d="M922.79,97.36c-9.09,0-13.64-3.59-13.64-9.77,0-8.25,8.59-9.88,17.74-10.39v-1.57c0-3.14-2.19-4.32-5.67-4.32-2.86,0-6.34,.9-8.47,1.8l-1.91-5.16c2.53-1.07,6.85-2.19,11.23-2.19,7.74,0,12.07,3.03,12.07,10.78v18.64c-2.25,1.18-6.79,2.19-11.34,2.19m4.1-15.27c-5.61,.28-10.55,.78-10.55,5.33,0,2.86,2.24,4.49,6.23,4.49,1.63,0,3.54-.28,4.32-.62v-9.21Z"/><rect class="cls-1" x="938.24" y="52.62" width="7.63" height="44.07"/><path class="cls-1" d="M541.29,73.59c-2.76,0-5.56,.78-7.25,1.56l.9,2.43c1.44-.7,4-1.36,6.05-1.36,3.09,0,5.27,1.03,5.27,4.32v1.69c-6.72,.37-13.55,1.32-13.55,7.66,0,4.2,3.05,6.79,9.14,6.79,2.93,0,6.1-.7,7.66-1.57v-14.29c0-5.27-3.25-7.24-8.23-7.24m4.98,19.8c-.78,.37-2.8,.7-4.49,.7-3.87,0-5.81-1.69-5.81-4.28,0-4.61,5.36-4.9,10.29-5.19v8.77Z"/><path class="cls-1" d="M514.15,96.69c-2.39,0-4.98-.7-6.59-1.57l1.24-2.64c1.19,.7,3.54,1.4,5.32,1.4,2.84,0,4.73-1.4,4.73-3.58,0-2.35-1.89-3.25-4.49-4.2-3.13-1.15-6.22-2.55-6.22-6.54,0-3.46,2.68-5.97,7.37-5.97,2.51,0,4.7,.66,6.18,1.56l-1.19,2.43c-1.03-.66-2.93-1.32-4.65-1.32-2.67,0-4.2,1.44-4.2,3.29,0,2.35,1.81,3.17,4.28,4.07,3.3,1.24,6.51,2.51,6.51,6.68,0,3.83-3.05,6.38-8.27,6.38"/><path class="cls-1" d="M472.18,98.93c-14.85,0-22.32-6.04-22.32-16.19,0-14.37,15.33-16.96,30.95-17.82v-3.26c0-6.51-4.31-8.81-10.92-8.81-4.89,0-10.83,1.53-14.27,3.16l-2.69-7.19c4.12-1.82,11.11-3.64,18.01-3.64,12.36,0,19.83,4.79,19.83,17.53v32.57c-3.74,2.01-11.3,3.64-18.58,3.64m8.62-27.01c-10.54,.58-21.08,1.43-21.08,10.63,0,5.46,4.22,8.82,12.17,8.82,3.36,0,7.28-.58,8.91-1.34v-18.1Z"/><path class="cls-1" d="M447.36,54.29c-1.53-.38-3.35-.57-5.27-.57-2.97,0-6.13,.48-8.15,1.34v42.82h-10.44V48.83c4.98-2.11,12.36-3.64,20.03-3.64,2.3,0,4.31,.09,5.84,.38l-2.01,8.71Z"/><path class="cls-1" d="M398.28,89.93c-1.63,.37-3.2,.44-4.86,.23-5.32-.69-8.05-3.83-8.05-9.63V46.24h-10.45v34.11c0,12.74,7.06,18.41,20.26,18.58,13.2-.17,20.26-5.85,20.26-18.58V46.24h-10.44v34.3c0,5.3-2.28,8.38-6.73,9.4"/><path class="cls-1" d="M363.24,98.55c-9.11,0-14.18-5.08-14.18-15.13v-29.32h-6.99v-7.85h6.99v-11.97l10.25-3.17v15.14h10.44v7.85h-10.44v28.74c0,4.69,3.07,6.51,6.9,6.51,1.24,0,2.68-.28,3.54-.67v8.72c-1.25,.57-3.83,1.15-6.51,1.15"/><path class="cls-1" d="M327.22,98.93c-11.5,0-22.71-8.24-22.71-26.92s11.21-26.82,22.71-26.82c5.65,0,10.06,1.44,13.22,3.54l-3.45,7.57c-2.11-1.53-5.27-2.49-8.43-2.49-6.9,0-13.22,5.46-13.22,18.11s6.52,18.2,13.22,18.2c3.16,0,6.33-.96,8.43-2.49l3.45,7.76c-3.26,2.2-7.57,3.54-13.22,3.54"/><path class="cls-1" d="M279.79,98.93c-14.85,0-22.32-6.04-22.32-16.19,0-14.37,15.33-16.96,30.94-17.82v-3.26c0-6.51-4.31-8.81-10.92-8.81-4.89,0-10.82,1.53-14.27,3.16l-2.68-7.19c4.12-1.82,11.12-3.64,18.01-3.64,12.36,0,19.83,4.79,19.83,17.53v32.57c-3.74,2.01-11.31,3.64-18.59,3.64m8.62-27.01c-10.54,.58-21.07,1.43-21.07,10.63,0,5.46,4.21,8.82,12.17,8.82,3.35,0,7.28-.58,8.91-1.34v-18.1Z"/><path class="cls-1" d="M256.12,30.92c-5.94,0-10.25,2.49-10.25,8.91v6.42h10.73v7.85h-10.73v43.78h-10.25V54.1h-6.8v-7.85h6.8v-6.42c0-11.88,8.05-17.34,18.68-17.34,1.05,0,2.49,.09,3.25,.19v8.24h-1.44Z"/><path class="cls-1" d="M204.24,98.83c11.84-.16,18.54-5.82,18.54-17.62V46.24h-5.65v35.06c0,8.45-4.32,12.58-12.89,12.74-8.56-.16-12.89-4.28-12.89-12.74V46.24h-5.65v34.97c0,11.8,6.7,17.46,18.54,17.62"/><path class="cls-1" d="M159.26,98.84c-5.17,0-11.11-1.44-14.75-3.54l2.21-4.41c2.87,1.73,8.24,3.26,12.45,3.26,7.57,0,12.64-3.74,12.64-9.58,0-6.23-4.98-8.53-11.69-11.02-7.67-2.88-14.28-6.04-14.28-14.95,0-7.47,5.94-13.32,16.39-13.32,5.46,0,10.35,1.54,13.6,3.55l-2.2,4.22c-2.39-1.63-6.8-3.16-11.02-3.16-7,0-11.02,3.93-11.02,8.72,0,6.23,4.69,8.24,11.02,10.64,8.04,3.06,15.03,6.03,15.03,15.42,0,8.53-6.99,14.18-18.39,14.18"/><path class="cls-1" d="M56.37,49.05c1,1.99,3.21,2.1,5.35,.91,2.14-1.19,4.19-3.7,4.51-6.63s-1.1-6.31-3.14-7.04c-2.03-.74-4.68,1.16-6.1,4.04-1.42,2.88-1.63,6.74-.62,8.73"/><path class="cls-1" d="M59.78,85.89c2.2-.34,2.99-2.41,2.52-4.81-.48-2.4-2.22-5.13-4.91-6.34-2.69-1.21-6.34-.9-7.67,.8-1.33,1.71-.34,4.81,1.95,7.05,2.3,2.24,5.9,3.63,8.11,3.29"/><path class="cls-1" d="M95.87,94.03c.36-2.2-1.36-3.59-3.79-3.88-2.43-.29-5.56,.53-7.55,2.71-1.98,2.19-2.81,5.75-1.6,7.54,1.21,1.79,4.47,1.81,7.31,.32,2.84-1.49,5.28-4.49,5.63-6.69"/><path class="cls-1" d="M114.76,62.23c-1.98-1.02-3.83,.19-4.86,2.41-1.03,2.22-1.22,5.46,.25,8.02,1.47,2.56,4.6,4.45,6.68,3.85,2.08-.6,3.1-3.69,2.56-6.85-.54-3.16-2.64-6.41-4.63-7.42"/><path class="cls-1" d="M90.36,34.42c-1.58,1.57-1.01,3.71,.79,5.37,1.8,1.66,4.81,2.85,7.7,2.24,2.89-.6,5.65-3,5.73-5.16,.07-2.16-2.55-4.09-5.73-4.56-3.18-.47-6.91,.54-8.49,2.11"/><path class="cls-1" d="M73.65,23.43c-5.25,.27-10.68,1.5-15.23,4.21-5.55,3.29-9.5,8.79-12.06,14.46-2.42,5.37-4.28,12.51-3.57,18.57,1.06,9.03,7.34,8.52,14.25,5.27,5.86-2.75,10.93-6.5,16.03-10.35,2.78-2.1,5.54-4.21,8.27-6.38-.94-.72-1.87-1.46-2.79-2.22-1.29-1.07-2.55-2.19-3.75-3.36-1.51,1.16-3.03,2.3-4.57,3.44-2.94,2.17-5.85,4.28-9.22,5.82-3.99,1.82-7.51,1.98-8.1-3.14-.75-6.52,3.22-15.4,9.11-18.69,1.83-1.02,3.89-1.66,5.99-1.99,.02-.04,.03-.09,.05-.13,.22-.59,.51-1.15,.87-1.67,.37-.55,.81-1.05,1.29-1.5,.52-.49,1.08-.93,1.68-1.31,.32-.21,.64-.4,.97-.59,.26-.15,.52-.29,.79-.42"/><path class="cls-1" d="M40.75,61.54c-1.36,5.08-1.87,10.62-.71,15.79,1.42,6.3,5.43,11.75,10.03,15.94,4.35,3.96,10.58,7.94,16.55,9.13,8.91,1.78,10.37-4.35,9.42-11.93-.81-6.42-2.8-12.4-4.89-18.44-1.14-3.29-2.29-6.57-3.51-9.83-.98,.67-1.97,1.33-2.97,1.96-1.42,.89-2.87,1.74-4.36,2.53,.64,1.79,1.25,3.6,1.85,5.41,1.16,3.46,2.26,6.89,2.68,10.56,.5,4.36-.43,7.75-5.49,6.73-6.43-1.3-13.65-7.82-14.96-14.44-.41-2.06-.37-4.21-.04-6.31-.04-.03-.07-.05-.11-.08-.49-.39-.93-.84-1.32-1.34-.4-.52-.74-1.09-1.03-1.69-.31-.64-.54-1.31-.73-2-.1-.37-.19-.74-.26-1.11-.06-.29-.11-.59-.15-.88"/><path class="cls-1" d="M74.69,103.38c1.89,.96,3.93,1.66,6.01,1.91,6.7,.8,15.13-4.05,18.36-9.77,2.53-4.5-.41-6.44-4.7-7.3-3.63-.73-7.22-.74-10.88-.71-1.91,.02-3.81,.04-5.71,.09-.29-1.65-.65-3.3-1.06-4.92-.29-1.15-.61-2.29-.95-3.43,3.48-.15,6.96-.23,10.44-.3,6.39-.12,12.69-.17,19.05,1.05,7.5,1.44,12.88,4.72,8.43,12.64-2.98,5.32-8.69,10.01-13.8,12.92-5.4,3.08-11.83,5.21-18.26,4.61-5.27-.49-10.39-2.69-14.8-5.55,.29,.05,.59,.09,.88,.13,.38,.04,.75,.08,1.13,.09,.71,.04,1.43,.01,2.13-.08,.65-.08,1.3-.23,1.92-.45,.59-.21,1.16-.49,1.68-.84,.04-.03,.07-.05,.11-.08"/><path class="cls-1" d="M115.85,93.11c4.09-3.31,7.75-7.49,9.85-12.36,2.56-5.93,2.51-12.7,1.25-18.79-1.19-5.76-3.89-12.64-8.02-17.12-6.17-6.68-10.94-2.58-14.63,4.11-3.12,5.67-5.02,11.68-6.88,17.8-1.01,3.33-2.01,6.67-2.94,10.02,.71,.02,1.41,.04,2.11,.08,2.16,.1,4.32,.29,6.46,.59,.53-1.83,1.1-3.64,1.68-5.46,1.1-3.48,2.22-6.9,4.04-10.12,2.15-3.82,4.91-6.02,8.4-2.22,4.44,4.83,6.45,14.35,3.62,20.48-.88,1.9-2.17,3.63-3.67,5.13,.06,.21,.12,.42,.16,.63,.06,.31,.11,.62,.13,.93,.05,.65,.03,1.3-.07,1.94-.1,.68-.27,1.36-.49,2.02-.25,.74-.56,1.46-.91,2.16-.03,.06-.06,.11-.09,.17"/><path class="cls-1" d="M120.06,42.94c-1.88-4.91-4.73-9.69-8.71-13.19-4.85-4.26-11.3-6.32-17.48-7-5.85-.65-13.22-.21-18.76,2.34-8.26,3.8-5.83,9.61-.61,15.18,4.43,4.72,9.56,8.39,14.8,12.04,2.86,1.99,5.72,3.97,8.62,5.89,.4-1.12,.81-2.23,1.25-3.34,.62-1.56,1.3-3.1,2.03-4.61-1.57-1.07-3.13-2.17-4.68-3.28-2.97-2.13-5.88-4.25-8.38-6.97-2.96-3.23-4.21-6.53,.49-8.67,5.97-2.73,15.64-1.7,20.59,2.88,1.54,1.43,2.78,3.19,3.75,5.08h.14c.63,.03,1.25,.14,1.85,.31,.63,.18,1.24,.45,1.82,.76,.63,.34,1.21,.74,1.77,1.19,.3,.24,.58,.49,.86,.74,.22,.2,.43,.41,.64,.62"/></svg>