<?xml version="1.0" encoding="utf-8"?>
<!-- Generator: Adobe Illustrator 23.0.5, SVG Export Plug-In . SVG Version: 6.00 Build 0)  -->
<svg version="1.1" id="Layer_1" xmlns="http://www.w3.org/2000/svg" xmlns:xlink="http://www.w3.org/1999/xlink" x="0px" y="0px"
	 viewBox="0 0 506 171.2" style="enable-background:new 0 0 506 171.2;" xml:space="preserve">
<style type="text/css">
	.st0{fill:#FFFFFF;}
</style>
<path class="st0" d="M116.2,149.8c-2.8,0-6.1-0.8-8.1-1.9l1.2-2.4c1.6,0.9,4.5,1.8,6.8,1.8c4.2,0,6.9-2.1,6.9-5.3
	c0-3.4-2.7-4.7-6.4-6.1c-4.2-1.6-7.8-3.3-7.8-8.2c0-4.1,3.3-7.3,9-7.3c3,0,5.7,0.8,7.5,1.9l-1.2,2.3c-1.3-0.9-3.7-1.7-6.1-1.7
	c-3.8,0-6.1,2.2-6.1,4.8c0,3.4,2.6,4.5,6.1,5.8c4.4,1.7,8.3,3.3,8.3,8.5C126.3,146.7,122.5,149.8,116.2,149.8"/>
<path class="st0" d="M141,149.8c-6.7,0-10.5-3.1-10.5-9.7V121c0,0,0-0.1,0.1-0.1h2.9c0,0,0.1,0,0.1,0.1v19.2c0,4.7,2.5,7,7.4,7
	c3.8,0,6.8-3.1,6.8-6.8V121c0,0,0-0.1,0.1-0.1h2.9c0,0,0.1,0,0.1,0.1v18.8c0,5.4-4.3,10-9.8,10H141"/>
<path class="st0" d="M168.8,112.5c-3.3,0-5.6,1.4-5.6,4.9v3.5h5.9v4.3h-5.9v24h-5.6v-24h-3.7v-4.3h3.7v-3.5c0-6.5,4.4-9.5,10.3-9.5
	c0.6,0,1.4,0.1,1.8,0.1v4.5L168.8,112.5L168.8,112.5z"/>
<path class="st0" d="M181.4,149.9c-8.1,0-12.3-3.3-12.3-8.9c0-7.9,8.4-9.3,17-9.8v-1.8c0-3.6-2.4-4.8-6-4.8c-2.7,0-5.9,0.8-7.8,1.7
	l-1.5-3.9c2.3-1,6.1-2,9.9-2c6.8,0,10.9,2.6,10.9,9.6v17.9C189.5,149,185.4,149.8,181.4,149.9 M186.1,135
	c-5.8,0.3-11.6,0.8-11.6,5.8c0,3,2.3,4.8,6.7,4.8c1.8,0,4-0.3,4.9-0.7L186.1,135L186.1,135z"/>
<path class="st0" d="M207.2,149.9c-6.3,0-12.5-4.5-12.5-14.8s6.1-14.7,12.5-14.7c3.1,0,5.5,0.8,7.3,1.9l-1.9,4.2
	c-1.1-0.8-2.9-1.4-4.6-1.4c-3.8,0-7.3,3-7.3,9.9s3.6,10,7.3,10c1.7,0,3.5-0.5,4.6-1.4l1.9,4.3C212.7,149.1,210.3,149.8,207.2,149.9"
	/>
<path class="st0" d="M226.9,149.6c-5,0-7.8-2.8-7.8-8.3v-16.1h-3.8v-4.3h3.8v-6.6l5.6-1.7v8.3h5.7v4.3h-5.7V141
	c0,2.6,1.7,3.6,3.8,3.6c0.7,0,1.5-0.2,1.9-0.4v4.8C229.8,149.3,228.3,149.7,226.9,149.6"/>
<path class="st0" d="M244.4,149.9c-7.5,0-11.5-3.1-11.5-10.2v-18.7h5.7v18.8c0,3.6,1.9,5.4,5.7,5.4h0.1c2.8,0,5-2.3,5-5.1v-19.1h5.7
	V139c0,5.9-4.7,10.8-10.6,10.9L244.4,149.9"/>
<path class="st0" d="M272.3,125.3c-0.8-0.2-1.8-0.3-2.9-0.3c-1.6,0-3.4,0.3-4.5,0.7v23.5h-5.7v-26.9c2.7-1.2,6.8-2,11-2
	c1.3,0,2.4,0.1,3.2,0.2L272.3,125.3L272.3,125.3z"/>
<path class="st0" d="M285.9,149.9c-8.1,0-12.3-3.3-12.3-8.9c0-7.9,8.4-9.3,17-9.8v-1.8c0-3.6-2.4-4.8-6-4.8c-2.7,0-6,0.8-7.8,1.7
	l-1.5-3.9c2.3-1,6.1-2,9.9-2c6.8,0,10.9,2.6,10.9,9.6v17.9C294,149,289.9,149.8,285.9,149.9 M290.6,135c-5.8,0.3-11.6,0.8-11.6,5.8
	c0,3,2.3,4.8,6.7,4.8c1.8,0,4-0.3,4.9-0.7V135L290.6,135z"/>
<path class="st0" d="M313.1,149.9c-9.1,0-14.1-5.4-14.1-14.6s4.6-14.6,13.3-14.6c1.5,0,3.2,0.3,4,0.6V108h7.2v39.9
	C321.4,149,317.4,149.9,313.1,149.9 M316.2,126.6c-0.6-0.3-2-0.5-3.3-0.5c-4.5,0-6.8,3.7-6.8,9.1c0,5.7,2.4,9.1,6.8,9.1
	c1.3,0,2.7-0.3,3.3-0.6V126.6L316.2,126.6z"/>
<path class="st0" d="M331,116.4c-2.3,0-4.1-1.7-4.1-3.9s1.8-3.8,4.1-3.8s4.1,1.7,4.1,3.8S333.2,116.4,331,116.4 M327.4,120.9h7.1
	v28.3h-7.1V120.9z"/>
<path class="st0" d="M350.4,161.1c-4.5,0-8.2-0.9-10.8-2.2l2-5.6c1.9,1,4.8,1.7,8,1.7c4.2,0,6.1-2.2,6.1-6.1v-1.7
	c-1.4,0.6-3.4,1-5.3,1c-7.2,0-12.1-5-12.1-13.5c0-9.6,5.6-14.4,14.5-14.4c4,0,7.7,0.9,10,2.1v26.6
	C362.9,156.9,358,161.1,350.4,161.1 M355.8,126.4c-0.7-0.3-2-0.6-3.5-0.6c-4,0-6.7,2.6-6.7,8.6c0,5.6,2.6,8.4,6.5,8.4
	c1.3,0,2.9-0.4,3.7-0.8C355.8,141.9,355.8,126.4,355.8,126.4z"/>
<path class="st0" d="M370.4,116.4c-2.3,0-4.1-1.7-4.1-3.9s1.8-3.8,4.1-3.8s4.1,1.7,4.1,3.8S372.6,116.4,370.4,116.4 M366.8,120.9
	h7.1v28.3h-7.1V120.9z"/>
<path class="st0" d="M389.6,149.7c-5.5,0-8-3-8-8.9v-14.5H378v-5.4h3.6v-6.3l7-2.1v8.4h5.3v5.4h-5.3v14c0,2.3,1.4,3.1,3.3,3.1
	c0.7,0,1.6-0.2,2-0.4v5.9C393.1,149.3,391.4,149.7,389.6,149.7"/>
<path class="st0" d="M410.8,149.9c-8.5,0-12.8-3.4-12.8-9.1c0-7.7,8-9.3,16.6-9.7v-1.5c0-2.9-2-4.1-5.3-4.1c-2.7,0-5.9,0.8-7.9,1.7
	l-1.8-4.8c2.4-1,6.4-2.1,10.5-2.1c7.3,0,11.3,2.8,11.3,10.1v17.5C419.3,149,415,149.9,410.8,149.9 M414.6,135.6
	c-5.3,0.3-9.9,0.7-9.9,5c0,2.7,2.1,4.2,5.8,4.2c1.5,0,3.3-0.3,4-0.6L414.6,135.6L414.6,135.6z"/>
<rect x="425.2" y="108" class="st0" width="7.1" height="41.3"/>
<g>
	<path class="st0" d="M480,61.7c-2.6,0-5.2,0.7-6.8,1.5l0.8,2.3c1.3-0.7,3.8-1.3,5.7-1.3c2.9,0,4.9,1,4.9,4.1v1.6
		c-6.3,0.3-12.7,1.2-12.7,7.2c0,3.9,2.9,6.4,8.6,6.4c2.7,0,5.7-0.7,7.2-1.5V68.5C487.7,63.5,484.6,61.7,480,61.7 M484.6,80.2
		c-0.7,0.3-2.6,0.7-4.2,0.7c-3.6,0-5.5-1.6-5.5-4c0-4.3,5-4.6,9.7-4.9L484.6,80.2L484.6,80.2z"/>
	<path class="st0" d="M454.5,83.3c-2.2,0-4.7-0.7-6.2-1.5l1.2-2.5c1.1,0.7,3.3,1.3,5,1.3c2.7,0,4.4-1.3,4.4-3.4
		c0-2.2-1.8-3.1-4.2-3.9c-2.9-1.1-5.8-2.4-5.8-6.1c0-3.2,2.5-5.6,6.9-5.6c2.4,0,4.4,0.6,5.8,1.5l-1.1,2.3c-1-0.6-2.7-1.2-4.4-1.2
		c-2.5,0-3.9,1.3-3.9,3.1c0,2.2,1.7,3,4,3.8c3.1,1.2,6.1,2.4,6.1,6.3C462.3,80.9,459.4,83.3,454.5,83.3"/>
</g>
<path class="st0" d="M415.4,84.7c-13.9,0-20.9-5.7-20.9-15.2c0-13.5,14.4-15.9,29-16.7v-3.1c0-6.1-4-8.3-10.2-8.3
	c-4.6,0-10.1,1.4-13.4,3l-2.5-6.7c3.9-1.7,10.4-3.4,16.9-3.4c11.6,0,18.6,4.5,18.6,16.4v30.5C429.3,83.1,422.2,84.7,415.4,84.7
	 M423.4,59.3c-9.9,0.5-19.8,1.3-19.8,10c0,5.1,4,8.3,11.4,8.3c3.1,0,6.8-0.5,8.4-1.3L423.4,59.3L423.4,59.3z"/>
<path class="st0" d="M392.1,42.8c-1.4-0.3-3.1-0.5-4.9-0.5c-2.8,0-5.8,0.5-7.6,1.3v40.2h-9.8v-46c4.7-2,11.6-3.4,18.8-3.4
	c2.1,0,4,0.1,5.5,0.4L392.1,42.8L392.1,42.8z"/>
<path class="st0" d="M346.1,76.2c-1.5,0.3-3,0.4-4.6,0.2c-5-0.6-7.5-3.6-7.5-9V35.3h-9.8v32c0,11.9,6.6,17.3,19,17.4
	c12.4-0.2,19-5.5,19-17.4v-32h-9.8v32.2C352.4,72.4,350.2,75.3,346.1,76.2"/>
<path class="st0" d="M313.2,84.3c-8.5,0-13.3-4.8-13.3-14.2V42.6h-6.5v-7.4h6.5V24l9.6-3v14.2h9.8v7.4h-9.8v26.9
	c0,4.4,2.9,6.1,6.5,6.1c1.2,0,2.5-0.3,3.3-0.6v8.2C318.1,83.8,315.7,84.3,313.2,84.3"/>
<path class="st0" d="M279.4,84.7c-10.8,0-21.3-7.7-21.3-25.2s10.5-25.2,21.3-25.2c5.3,0,9.4,1.3,12.4,3.3l-3.2,7.1
	c-2-1.4-4.9-2.3-7.9-2.3c-6.5,0-12.4,5.1-12.4,17s6.1,17.1,12.4,17.1c3,0,5.9-0.9,7.9-2.3l3.2,7.3C288.8,83.4,284.7,84.7,279.4,84.7
	"/>
<path class="st0" d="M235,84.7C221,84.7,214,79,214,69.5c0-13.5,14.4-15.9,29-16.7v-3.1c0-6.1-4-8.3-10.2-8.3
	c-4.6,0-10.1,1.4-13.4,3l-2.5-6.7c3.9-1.7,10.4-3.4,16.9-3.4c11.6,0,18.6,4.5,18.6,16.4v30.5C248.9,83.1,241.8,84.7,235,84.7
	 M243,59.3c-9.9,0.5-19.8,1.3-19.8,10c0,5.1,4,8.3,11.4,8.3c3.1,0,6.8-0.5,8.4-1.3V59.3L243,59.3z"/>
<path class="st0" d="M212.8,20.9c-5.6,0-9.6,2.3-9.6,8.4v6h10.1v7.4h-10.1v41.1h-9.6V42.6h-6.4v-7.4h6.4v-6
	c0-11.1,7.6-16.3,17.5-16.3c1,0,2.3,0.1,3,0.2v7.7L212.8,20.9L212.8,20.9z"/>
<path class="st0" d="M164.1,84.6c11.1-0.2,17.4-5.5,17.4-16.5V35.3h-5.3v32.9c0,7.9-4.1,11.8-12.1,11.9c-8-0.2-12.1-4-12.1-11.9
	V35.3h-5.3v32.8C146.8,79.1,153,84.4,164.1,84.6"/>
<path class="st0" d="M121.9,84.6c-4.9,0-10.4-1.3-13.8-3.3l2.1-4.1c2.7,1.6,7.7,3.1,11.7,3.1c7.1,0,11.9-3.5,11.9-9
	c0-5.8-4.7-8-11-10.3c-7.2-2.7-13.4-5.7-13.4-14c0-7,5.6-12.5,15.4-12.5c5.1,0,9.7,1.4,12.8,3.3l-2.1,4c-2.2-1.5-6.4-3-10.3-3
	c-6.6,0-10.3,3.7-10.3,8.2c0,5.8,4.4,7.7,10.3,10c7.5,2.9,14.1,5.7,14.1,14.5C139.2,79.3,132.6,84.6,121.9,84.6"/>
<path class="st0" d="M25.5,37.9c0.9,1.9,3,2,5,0.8c2-1.1,3.9-3.5,4.2-6.2s-1-5.9-2.9-6.6c-1.9-0.7-4.4,1.1-5.7,3.8
	C24.7,32.4,24.5,36,25.5,37.9"/>
<path class="st0" d="M28.7,72.4c2.1-0.3,2.8-2.3,2.4-4.5s-2.1-4.8-4.6-6c-2.5-1.1-5.9-0.8-7.2,0.8c-1.2,1.6-0.3,4.5,1.8,6.6
	S26.6,72.7,28.7,72.4"/>
<path class="st0" d="M62.5,80.1c0.3-2.1-1.3-3.4-3.6-3.6s-5.2,0.5-7.1,2.5s-2.6,5.4-1.5,7.1s4.2,1.7,6.9,0.3
	C59.9,85,62.2,82.2,62.5,80.1"/>
<path class="st0" d="M80.2,50.3c-1.9-1-3.6,0.2-4.6,2.3c-1,2.1-1.1,5.1,0.2,7.5c1.4,2.4,4.3,4.2,6.3,3.6c1.9-0.6,2.9-3.5,2.4-6.4
	C84.1,54.2,82.1,51.2,80.2,50.3"/>
<path class="st0" d="M57.3,24.2c-1.5,1.5-0.9,3.5,0.7,5c1.7,1.6,4.5,2.7,7.2,2.1s5.3-2.8,5.4-4.8s-2.4-3.8-5.4-4.3
	C62.3,21.8,58.8,22.7,57.3,24.2"/>
<path class="st0" d="M41.7,13.9c-4.9,0.3-10,1.4-14.3,3.9c-5.2,3.1-8.9,8.2-11.3,13.6c-2.3,5-4,11.7-3.3,17.4c1,8.5,6.9,8,13.4,4.9
	c5.5-2.6,10.2-6.1,15-9.7c2.6-2,5.2-4,7.8-6c-0.9-0.7-1.8-1.4-2.6-2.1c-1.2-1-2.4-2-3.5-3.2c-1.4,1.1-2.8,2.2-4.3,3.2
	c-2.8,2-5.5,4-8.6,5.5c-3.7,1.7-7,1.9-7.6-3c-0.7-6.1,3-14.4,8.5-17.5c1.7-1,3.7-1.5,5.6-1.9c0,0,0-0.1,0-0.1
	c0.2-0.5,0.5-1.1,0.8-1.6c0.3-0.5,0.8-1,1.2-1.4c0.5-0.5,1-0.9,1.6-1.2c0.3-0.2,0.6-0.4,0.9-0.6C41.2,14.1,41.4,14,41.7,13.9"/>
<path class="st0" d="M10.8,49.6c-1.3,4.8-1.8,10-0.7,14.8c1.3,5.9,5.1,11,9.4,14.9c4.1,3.7,9.9,7.4,15.5,8.6
	c8.4,1.7,9.7-4.1,8.8-11.2c-0.8-6-2.6-11.6-4.6-17.3c-1.1-3.1-2.2-6.2-3.3-9.2c-0.9,0.6-1.8,1.2-2.8,1.8c-1.3,0.8-2.7,1.6-4.1,2.4
	c0.6,1.7,1.2,3.4,1.7,5.1c1.1,3.2,2.1,6.5,2.5,9.9c0.5,4.1-0.4,7.3-5.2,6.3c-6-1.2-12.8-7.3-14-13.5c-0.4-1.9-0.3-4,0-5.9
	c0,0-0.1,0-0.1-0.1c-0.5-0.4-0.9-0.8-1.2-1.2c-0.4-0.5-0.7-1-1-1.6c-0.3-0.6-0.5-1.2-0.7-1.9c-0.1-0.3-0.2-0.7-0.2-1
	C10.9,50.2,10.9,49.9,10.8,49.6"/>
<path class="st0" d="M42.7,88.8c1.8,0.9,3.7,1.6,5.6,1.8c6.3,0.8,14.2-3.8,17.2-9.2c2.4-4.2-0.4-6-4.4-6.8
	c-3.4-0.7-6.8-0.7-10.2-0.7c-1.8,0-3.6,0-5.4,0.1c-0.3-1.6-0.6-3.1-1-4.6c-0.3-1.1-0.6-2.2-0.9-3.2c3.3-0.1,6.5-0.2,9.8-0.3
	c6-0.1,11.9-0.2,17.9,1c7,1.3,12.1,4.4,7.9,11.8c-2.8,5-8.2,9.4-12.9,12.1c-5.1,2.9-11.1,4.9-17.1,4.3c-4.9-0.5-9.7-2.5-13.9-5.2
	c0.3,0.1,0.6,0.1,0.8,0.1c0.3,0,0.7,0.1,1.1,0.1c0.7,0,1.3,0,2-0.1c0.6-0.1,1.2-0.2,1.8-0.4C41.5,89.5,42.1,89.2,42.7,88.8
	C42.6,88.9,42.6,88.9,42.7,88.8"/>
<path class="st0" d="M81.2,79.2c3.8-3.1,7.3-7,9.2-11.6c2.4-5.6,2.4-11.9,1.2-17.6c-1.1-5.4-3.6-11.8-7.5-16
	c-5.8-6.3-10.3-2.4-13.7,3.9c-2.9,5.3-4.7,11-6.4,16.7c-0.9,3.1-1.9,6.2-2.8,9.4c0.7,0,1.3,0,2,0.1c2,0.1,4.1,0.3,6.1,0.6
	c0.5-1.7,1-3.4,1.6-5.1c1-3.3,2.1-6.5,3.8-9.5c2-3.6,4.6-5.6,7.9-2.1c4.2,4.5,6.1,13.5,3.4,19.2c-0.8,1.8-2,3.4-3.4,4.8
	c0.1,0.2,0.1,0.4,0.1,0.6c0.1,0.3,0.1,0.6,0.1,0.9c0.1,0.6,0,1.2-0.1,1.8c-0.1,0.6-0.2,1.3-0.5,1.9c-0.2,0.7-0.5,1.4-0.9,2
	C81.3,79.1,81.2,79.2,81.2,79.2"/>
<path class="st0" d="M85.2,32.2c-1.8-4.6-4.4-9.1-8.2-12.4c-4.5-4-10.6-5.9-16.4-6.6c-5.5-0.6-12.4-0.2-17.6,2.2
	c-7.7,3.6-5.5,9-0.6,14.2c4.2,4.4,9,7.9,13.9,11.3c2.7,1.9,5.4,3.7,8.1,5.5c0.4-1,0.8-2.1,1.2-3.1c0.6-1.5,1.2-2.9,1.9-4.3
	c-1.5-1-2.9-2-4.4-3.1c-2.8-2-5.5-4-7.9-6.5c-2.8-3-3.9-6.1,0.5-8.1c5.6-2.6,14.7-1.6,19.3,2.7c1.4,1.3,2.6,3,3.5,4.8h0.1
	c0.6,0,1.2,0.1,1.7,0.3c0.6,0.2,1.2,0.4,1.7,0.7c0.6,0.3,1.1,0.7,1.7,1.1c0.3,0.2,0.6,0.5,0.8,0.7C84.8,31.8,85,32,85.2,32.2"/>
</svg>
