<?xml version="1.0" encoding="UTF-8"?><svg id="Layer_1" xmlns="http://www.w3.org/2000/svg" viewBox="0 0 602.39 171.25"><defs><style>.cls-1{fill:#253b80;}</style></defs><path class="cls-1" d="M172.22,149.79c-2.84,0-6.1-.79-8.1-1.95l1.21-2.42c1.58,.95,4.52,1.79,6.84,1.79,4.16,0,6.94-2.05,6.94-5.26,0-3.42-2.73-4.68-6.42-6.05-4.21-1.58-7.84-3.31-7.84-8.21,0-4.1,3.26-7.31,9-7.31,3,0,5.68,.84,7.47,1.94l-1.21,2.31c-1.32-.89-3.73-1.73-6.05-1.73-3.84,0-6.05,2.16-6.05,4.79,0,3.42,2.58,4.52,6.05,5.84,4.42,1.68,8.26,3.31,8.26,8.47,0,4.68-3.84,7.79-10.1,7.79"/><path class="cls-1" d="M197.03,149.79c-6.68,0-10.47-3.1-10.47-9.68v-19.11s.04-.09,.09-.09h2.92s.09,.04,.09,.09v19.16c0,4.74,2.47,7,7.36,7,3.75,0,6.79-3.05,6.79-6.8v-19.36s.04-.09,.09-.09h2.93s.09,.04,.09,.09v18.8c0,5.43-4.34,9.96-9.77,9.99h-.12"/><path class="cls-1" d="M224.79,112.5c-3.26,0-5.63,1.37-5.63,4.89v3.52h5.89v4.31h-5.89v24.04h-5.63v-24.04h-3.73v-4.31h3.73v-3.52c0-6.52,4.42-9.52,10.26-9.52,.58,0,1.37,.05,1.79,.11v4.52h-.79Z"/><path class="cls-1" d="M237.37,149.85c-8.15,0-12.26-3.31-12.26-8.89,0-7.89,8.42-9.31,16.99-9.79v-1.79c0-3.58-2.37-4.84-6-4.84-2.68,0-5.95,.84-7.84,1.74l-1.47-3.95c2.26-1,6.1-2,9.89-2,6.78,0,10.89,2.63,10.89,9.63v17.88c-2.05,1.11-6.21,2-10.21,2m4.74-14.83c-5.79,.32-11.57,.79-11.57,5.84,0,3,2.31,4.84,6.68,4.84,1.84,0,4-.32,4.89-.74v-9.94Z"/><path class="cls-1" d="M263.23,149.85c-6.31,0-12.47-4.52-12.47-14.78s6.15-14.73,12.47-14.73c3.1,0,5.53,.79,7.26,1.94l-1.9,4.16c-1.15-.84-2.89-1.37-4.63-1.37-3.79,0-7.26,3-7.26,9.94s3.58,9.99,7.26,9.99c1.73,0,3.47-.53,4.63-1.37l1.9,4.26c-1.79,1.21-4.16,1.95-7.26,1.95"/><path class="cls-1" d="M282.86,149.64c-5,0-7.79-2.79-7.79-8.31v-16.1h-3.84v-4.31h3.84v-6.57l5.63-1.73v8.31h5.73v4.31h-5.73v15.78c0,2.58,1.68,3.58,3.79,3.58,.68,0,1.47-.16,1.94-.36v4.78c-.68,.32-2.1,.63-3.58,.63"/><path class="cls-1" d="M300.35,149.85c-7.47,0-11.47-3.1-11.47-10.2v-18.73h5.74v18.83c0,3.63,1.94,5.37,5.73,5.37h.07c2.77,0,4.98-2.32,4.98-5.09v-19.11h5.74v18.07c0,5.92-4.74,10.84-10.65,10.86h-.13"/><path class="cls-1" d="M328.34,125.33c-.84-.21-1.84-.32-2.89-.32-1.63,0-3.37,.26-4.47,.74v23.51h-5.73v-26.93c2.73-1.16,6.78-2,10.99-2,1.26,0,2.37,.05,3.21,.21l-1.11,4.79Z"/><path class="cls-1" d="M341.86,149.85c-8.15,0-12.26-3.31-12.26-8.89,0-7.89,8.42-9.31,16.99-9.79v-1.79c0-3.58-2.37-4.84-6-4.84-2.68,0-5.95,.84-7.84,1.74l-1.47-3.95c2.26-1,6.1-2,9.89-2,6.78,0,10.89,2.63,10.89,9.63v17.88c-2.05,1.11-6.21,2-10.21,2m4.74-14.83c-5.79,.32-11.57,.79-11.57,5.84,0,3,2.31,4.84,6.68,4.84,1.84,0,4-.32,4.89-.74v-9.94Z"/><path class="cls-1" d="M369.06,149.9c-9.15,0-14.15-5.42-14.15-14.62s4.58-14.62,13.26-14.62c1.53,0,3.16,.26,4.05,.58v-13.26h7.21v39.87c-2.05,1.11-6.05,2.05-10.36,2.05m3.16-23.3c-.58-.26-2.05-.53-3.31-.53-4.47,0-6.84,3.73-6.84,9.1,0,5.74,2.42,9.1,6.84,9.1,1.26,0,2.74-.26,3.31-.58v-17.09Z"/><path class="cls-1" d="M386.98,116.39c-2.26,0-4.1-1.73-4.1-3.89s1.84-3.84,4.1-3.84,4.1,1.68,4.1,3.84-1.84,3.89-4.1,3.89m-3.58,4.52h7.15v28.35h-7.15v-28.35Z"/><path class="cls-1" d="M406.4,161.1c-4.52,0-8.21-.95-10.78-2.21l2.05-5.63c1.9,1,4.84,1.74,8,1.74,4.21,0,6.15-2.16,6.15-6.1v-1.74c-1.37,.63-3.42,1-5.26,1-7.21,0-12.15-5-12.15-13.52,0-9.58,5.63-14.36,14.52-14.36,4,0,7.68,.9,9.99,2.05v26.56c0,8-4.89,12.2-12.52,12.2m5.42-34.72c-.74-.32-2.05-.58-3.52-.58-3.95,0-6.73,2.63-6.73,8.58,0,5.57,2.58,8.36,6.52,8.36,1.32,0,2.89-.37,3.73-.79v-15.57Z"/><path class="cls-1" d="M426.37,116.39c-2.26,0-4.1-1.73-4.1-3.89s1.84-3.84,4.1-3.84,4.1,1.68,4.1,3.84-1.84,3.89-4.1,3.89m-3.58,4.52h7.15v28.35h-7.15v-28.35Z"/><path class="cls-1" d="M445.64,149.69c-5.47,0-8.05-3-8.05-8.94v-14.46h-3.63v-5.37h3.63v-6.31l7.05-2.05v8.36h5.31v5.37h-5.31v13.99c0,2.31,1.42,3.1,3.26,3.1,.74,0,1.58-.21,2.05-.42v5.94c-.84,.42-2.58,.79-4.31,.79"/><path class="cls-1" d="M466.75,149.9c-8.52,0-12.78-3.37-12.78-9.15,0-7.73,8.05-9.26,16.62-9.73v-1.47c0-2.95-2.05-4.05-5.31-4.05-2.68,0-5.94,.84-7.94,1.68l-1.79-4.84c2.37-1,6.42-2.05,10.52-2.05,7.26,0,11.31,2.84,11.31,10.1v17.46c-2.11,1.1-6.36,2.05-10.63,2.05m3.84-14.31c-5.26,.26-9.89,.74-9.89,5,0,2.68,2.1,4.21,5.84,4.21,1.53,0,3.31-.26,4.05-.58v-8.63Z"/><rect class="cls-1" x="481.23" y="107.97" width="7.15" height="41.29"/><g><path class="cls-1" d="M535.97,61.67c-2.58,0-5.21,.73-6.79,1.46l.84,2.28c1.35-.65,3.75-1.27,5.68-1.27,2.9,0,4.94,.97,4.94,4.05v1.58c-6.3,.35-12.7,1.24-12.7,7.18,0,3.94,2.86,6.37,8.57,6.37,2.74,0,5.72-.66,7.18-1.47v-13.4c0-4.94-3.05-6.79-7.72-6.79m4.67,18.57c-.73,.35-2.62,.66-4.21,.66-3.63,0-5.45-1.58-5.45-4.02,0-4.32,5.02-4.6,9.65-4.86v8.22Z"/><path class="cls-1" d="M510.52,83.33c-2.24,0-4.67-.66-6.18-1.47l1.16-2.47c1.12,.65,3.32,1.31,4.98,1.31,2.66,0,4.44-1.31,4.44-3.36,0-2.2-1.78-3.05-4.21-3.94-2.93-1.08-5.83-2.39-5.83-6.14,0-3.24,2.51-5.6,6.91-5.6,2.35,0,4.4,.62,5.79,1.47l-1.12,2.28c-.97-.62-2.74-1.23-4.36-1.23-2.51,0-3.94,1.35-3.94,3.09,0,2.2,1.7,2.97,4.02,3.82,3.09,1.16,6.1,2.36,6.1,6.26,0,3.59-2.86,5.98-7.76,5.98"/></g><path class="cls-1" d="M471.35,84.68c-13.92,0-20.93-5.66-20.93-15.18,0-13.48,14.37-15.9,29.01-16.71v-3.06c0-6.11-4.04-8.26-10.24-8.26-4.58,0-10.15,1.43-13.38,2.96l-2.52-6.74c3.87-1.71,10.42-3.41,16.89-3.41,11.59,0,18.59,4.49,18.59,16.44v30.54c-3.5,1.88-10.6,3.41-17.42,3.41m8.08-25.33c-9.88,.54-19.76,1.35-19.76,9.97,0,5.12,3.95,8.27,11.41,8.27,3.15,0,6.83-.54,8.36-1.26v-16.97Z"/><path class="cls-1" d="M448.08,42.82c-1.44-.35-3.14-.54-4.94-.54-2.79,0-5.75,.45-7.64,1.26v40.15h-9.79V37.7c4.67-1.98,11.59-3.41,18.78-3.41,2.15,0,4.04,.09,5.47,.36l-1.88,8.17Z"/><path class="cls-1" d="M402.06,76.24c-1.53,.34-3,.42-4.56,.22-4.99-.64-7.54-3.59-7.54-9.03V35.28h-9.79v31.98c0,11.94,6.62,17.26,19,17.42,12.38-.16,19-5.48,19-17.42v-31.98h-9.79v32.16c0,4.97-2.14,7.86-6.31,8.81"/><path class="cls-1" d="M369.21,84.32c-8.54,0-13.3-4.76-13.3-14.19v-27.49h-6.55v-7.36h6.55v-11.23l9.61-2.97v14.2h9.79v7.36h-9.79v26.94c0,4.4,2.87,6.11,6.47,6.11,1.17,0,2.51-.27,3.32-.63v8.18c-1.17,.54-3.59,1.08-6.11,1.08"/><path class="cls-1" d="M335.43,84.68c-10.78,0-21.29-7.72-21.29-25.24s10.51-25.15,21.29-25.15c5.3,0,9.43,1.35,12.4,3.32l-3.24,7.1c-1.98-1.43-4.94-2.34-7.91-2.34-6.47,0-12.39,5.12-12.39,16.98s6.11,17.07,12.39,17.07c2.97,0,5.93-.9,7.91-2.34l3.24,7.27c-3.06,2.07-7.1,3.32-12.4,3.32"/><path class="cls-1" d="M290.96,84.68c-13.92,0-20.93-5.66-20.93-15.18,0-13.48,14.37-15.9,29.01-16.71v-3.06c0-6.11-4.04-8.26-10.24-8.26-4.58,0-10.15,1.43-13.38,2.96l-2.51-6.74c3.86-1.71,10.42-3.41,16.89-3.41,11.59,0,18.59,4.49,18.59,16.44v30.54c-3.51,1.88-10.6,3.41-17.43,3.41m8.08-25.33c-9.88,.54-19.76,1.35-19.76,9.97,0,5.12,3.95,8.27,11.41,8.27,3.14,0,6.82-.54,8.35-1.26v-16.97Z"/><path class="cls-1" d="M268.77,20.9c-5.57,0-9.61,2.34-9.61,8.36v6.02h10.06v7.36h-10.06v41.05h-9.61V42.64h-6.37v-7.36h6.37v-6.02c0-11.14,7.55-16.26,17.52-16.26,.98,0,2.34,.08,3.05,.18v7.73h-1.35Z"/><path class="cls-1" d="M220.13,84.59c11.1-.15,17.38-5.46,17.38-16.52V35.28h-5.3v32.87c0,7.93-4.05,11.79-12.08,11.94-8.03-.15-12.08-4.02-12.08-11.94V35.28h-5.3v32.79c0,11.06,6.28,16.37,17.38,16.52"/><path class="cls-1" d="M177.95,84.59c-4.85,0-10.42-1.35-13.83-3.32l2.07-4.14c2.69,1.62,7.72,3.06,11.68,3.06,7.1,0,11.85-3.5,11.85-8.98,0-5.84-4.67-8-10.96-10.33-7.19-2.7-13.38-5.66-13.38-14.01,0-7,5.57-12.49,15.36-12.49,5.12,0,9.7,1.44,12.75,3.33l-2.06,3.95c-2.24-1.53-6.38-2.97-10.33-2.97-6.56,0-10.33,3.68-10.33,8.17,0,5.84,4.4,7.73,10.33,9.97,7.54,2.87,14.1,5.65,14.1,14.46,0,8-6.56,13.29-17.24,13.29"/><path class="cls-1" d="M81.48,37.91c.94,1.86,3.01,1.97,5.02,.85,2-1.12,3.93-3.47,4.23-6.22s-1.03-5.91-2.94-6.6c-1.9-.69-4.39,1.09-5.72,3.78-1.33,2.7-1.53,6.32-.58,8.18"/><path class="cls-1" d="M84.67,72.45c2.06-.32,2.81-2.26,2.36-4.51-.45-2.25-2.08-4.81-4.61-5.95-2.52-1.13-5.94-.84-7.19,.75-1.25,1.6-.32,4.51,1.83,6.61,2.15,2.1,5.54,3.4,7.6,3.08"/><path class="cls-1" d="M118.51,80.09c.33-2.06-1.28-3.37-3.56-3.64-2.28-.27-5.22,.49-7.08,2.54-1.86,2.05-2.64,5.39-1.5,7.07,1.14,1.68,4.19,1.7,6.86,.3,2.67-1.4,4.95-4.21,5.28-6.27"/><path class="cls-1" d="M136.23,50.26c-1.86-.96-3.6,.17-4.56,2.26-.96,2.08-1.15,5.12,.23,7.52,1.38,2.4,4.31,4.18,6.26,3.61,1.95-.56,2.91-3.46,2.4-6.43-.5-2.97-2.48-6.01-4.34-6.96"/><path class="cls-1" d="M113.34,24.2c-1.48,1.47-.94,3.47,.74,5.03,1.68,1.56,4.51,2.67,7.22,2.1,2.71-.57,5.3-2.81,5.37-4.84,.07-2.03-2.39-3.84-5.37-4.27-2.98-.44-6.48,.5-7.96,1.97"/><path class="cls-1" d="M97.68,13.88c-4.92,.26-10.01,1.41-14.28,3.94-5.21,3.09-8.91,8.25-11.31,13.56-2.27,5.03-4.01,11.73-3.35,17.41,1,8.46,6.88,7.99,13.36,4.94,5.49-2.58,10.24-6.09,15.03-9.71,2.61-1.97,5.2-3.95,7.75-5.98-.88-.68-1.76-1.37-2.61-2.08-1.21-1.01-2.39-2.05-3.52-3.15-1.41,1.09-2.84,2.16-4.28,3.22-2.75,2.03-5.49,4.01-8.64,5.45-3.74,1.71-7.04,1.86-7.59-2.95-.71-6.11,3.02-14.44,8.54-17.53,1.72-.96,3.65-1.55,5.61-1.87,.01-.04,.03-.08,.04-.12,.21-.55,.48-1.08,.81-1.56,.35-.51,.76-.98,1.21-1.4,.48-.46,1.02-.87,1.57-1.23,.3-.2,.6-.38,.91-.55,.24-.14,.49-.27,.74-.39"/><path class="cls-1" d="M66.83,49.62c-1.28,4.76-1.75,9.96-.66,14.8,1.33,5.9,5.09,11.02,9.4,14.95,4.08,3.71,9.92,7.44,15.52,8.56,8.36,1.67,9.72-4.08,8.83-11.18-.76-6.02-2.63-11.63-4.59-17.29-1.07-3.09-2.15-6.16-3.29-9.22-.92,.63-1.84,1.25-2.79,1.84-1.33,.84-2.69,1.64-4.08,2.37,.6,1.68,1.17,3.37,1.74,5.07,1.08,3.25,2.12,6.46,2.52,9.9,.47,4.08-.4,7.27-5.15,6.31-6.03-1.22-12.8-7.33-14.03-13.54-.38-1.93-.35-3.95-.04-5.92-.03-.03-.07-.05-.1-.08-.46-.37-.88-.79-1.24-1.25-.38-.49-.7-1.02-.96-1.58-.29-.6-.51-1.23-.69-1.87-.09-.34-.17-.69-.24-1.04-.06-.27-.1-.55-.14-.82"/><path class="cls-1" d="M98.66,88.85c1.77,.9,3.68,1.56,5.64,1.79,6.28,.75,14.19-3.8,17.21-9.16,2.38-4.22-.38-6.03-4.41-6.85-3.4-.69-6.77-.69-10.2-.67-1.79,.01-3.57,.03-5.36,.09-.27-1.55-.61-3.09-.99-4.62-.28-1.08-.57-2.15-.89-3.22,3.26-.14,6.52-.22,9.79-.28,6-.11,11.9-.16,17.87,.98,7.03,1.35,12.07,4.42,7.91,11.85-2.8,4.98-8.15,9.38-12.94,12.12-5.07,2.89-11.09,4.89-17.12,4.32-4.94-.46-9.74-2.52-13.87-5.2,.28,.05,.55,.09,.83,.12,.35,.04,.71,.07,1.06,.09,.67,.03,1.34,.01,2-.07,.61-.08,1.22-.22,1.8-.43,.55-.2,1.08-.46,1.57-.79,.03-.02,.07-.05,.11-.07"/><path class="cls-1" d="M137.24,79.22c3.83-3.1,7.27-7.03,9.24-11.58,2.4-5.56,2.36-11.91,1.18-17.62-1.12-5.4-3.65-11.85-7.52-16.05-5.78-6.26-10.26-2.42-13.72,3.86-2.93,5.32-4.71,10.95-6.45,16.69-.95,3.12-1.88,6.25-2.76,9.4,.66,.02,1.32,.04,1.98,.07,2.03,.1,4.05,.27,6.05,.56,.5-1.71,1.03-3.42,1.57-5.12,1.03-3.26,2.08-6.47,3.78-9.49,2.02-3.58,4.6-5.64,7.88-2.08,4.17,4.53,6.05,13.45,3.39,19.2-.82,1.79-2.04,3.4-3.44,4.81,.06,.2,.11,.39,.15,.59,.06,.29,.1,.58,.12,.88,.05,.61,.03,1.22-.06,1.82-.09,.64-.25,1.28-.46,1.89-.23,.69-.53,1.37-.86,2.02-.03,.05-.06,.11-.08,.16"/><path class="cls-1" d="M141.2,32.18c-1.77-4.6-4.44-9.09-8.16-12.37-4.54-4-10.59-5.92-16.39-6.56-5.49-.61-12.4-.19-17.59,2.2-7.74,3.56-5.47,9.01-.57,14.24,4.15,4.43,8.96,7.86,13.88,11.29,2.68,1.87,5.36,3.72,8.08,5.53,.37-1.05,.76-2.09,1.17-3.13,.58-1.46,1.22-2.91,1.91-4.32-1.47-1.01-2.93-2.04-4.38-3.08-2.79-1.99-5.51-3.98-7.86-6.53-2.78-3.03-3.94-6.12,.46-8.13,5.59-2.56,14.67-1.59,19.31,2.7,1.44,1.34,2.61,2.99,3.51,4.76h.13c.59,.03,1.17,.13,1.74,.29,.59,.17,1.16,.42,1.71,.72,.59,.32,1.14,.7,1.66,1.11,.28,.22,.55,.45,.81,.7,.2,.19,.4,.38,.6,.58"/></svg>