<?xml version="1.0" encoding="utf-8"?>
<!-- Generator: Adobe Illustrator 23.0.5, SVG Export Plug-In . SVG Version: 6.00 Build 0)  -->
<svg version="1.1" id="Capa_1" xmlns="http://www.w3.org/2000/svg" xmlns:xlink="http://www.w3.org/1999/xlink" x="0px" y="0px"
	 viewBox="0 0 518 505.6" style="enable-background:new 0 0 518 505.6;" xml:space="preserve">
<style type="text/css">
	.st0{fill:#F5F6FA;}
	.st1{fill-rule:evenodd;clip-rule:evenodd;fill:#7FB9E3;fill-opacity:0.22;}
	.st2{fill:#0075C9;}
	.st3{fill:#F3C24A;}
	.st4{fill:#FFFFFF;}
	.st5{fill:#263238;}
	.st6{fill:#455A64;}
	.st7{fill:#E0E0E0;}
	.st8{opacity:0.6;}
	.st9{fill:#FFBF9D;}
	.st10{fill:#FF9A6C;}
	.st11{opacity:0.3;enable-background:new    ;}
	.st12{fill:#201645;}
</style>
<path class="st0" d="M463.9,173.2c0.7-5.2-6.6-9.5-12.2-9.9c-2.7-0.2-5.4,0.2-7.9-0.7c-5.4-1.9-7.6-8.9-12.8-11.2
	c-3.9-1.7-8.5-0.2-12.3,1.8c-3.8,2-7.7,4.4-11.9,4.7c-3.7,0.2-7.8-1.1-11.1,0.7c-2.4,1.3-3.7,4.1-5.9,5.8c-2.2,1.7-5.1,2-7.8,2.1
	c-2.7,0.1-5.5,0.2-8,1.3c-2.5,1.1-4.6,3.7-4,6.4L463.9,173.2z"/>
<path class="st0" d="M236.3,125.1c0.7-5.2-6.6-9.5-12.2-9.9c-2.7-0.2-5.4,0.2-7.9-0.7c-5.4-1.9-7.6-8.9-12.8-11.2
	c-3.9-1.7-8.5-0.2-12.3,1.8c-3.8,2-7.7,4.4-11.9,4.7c-3.7,0.2-7.8-1.1-11.1,0.7c-2.4,1.3-3.7,4.1-5.9,5.8c-2.2,1.7-5.1,2-7.8,2.1
	c-2.7,0.1-5.5,0.2-8,1.3c-2.5,1.1-4.6,3.7-4,6.4L236.3,125.1z"/>
<path class="st0" d="M134.9,288.9c0.7-5.2-6.6-9.5-12.2-9.9c-2.7-0.2-5.4,0.2-7.9-0.7c-5.4-1.9-7.6-8.9-12.8-11.2
	c-3.9-1.7-8.5-0.2-12.3,1.8c-3.8,2-7.7,4.4-11.9,4.7c-3.7,0.2-7.8-1.1-11.1,0.7c-2.4,1.3-3.7,4.1-5.9,5.8c-2.2,1.7-5.1,2-7.8,2.1
	c-2.7,0.1-5.5,0.2-8,1.3c-2.5,1.1-4.6,3.7-4,6.4L134.9,288.9z"/>
<path class="st0" d="M323.4,218.3c0.4-3.2-4-5.8-7.5-6.1c-1.7-0.1-3.3,0.1-4.9-0.4c-3.3-1.1-4.7-5.5-7.9-6.8c-2.4-1-5.2-0.1-7.6,1
	c-2.4,1.1-4.7,2.7-7.3,2.8c-2.3,0.1-4.8-0.7-6.7,0.4c-1.4,0.8-2.3,2.6-3.6,3.5c-1.3,1-3.1,1.2-4.8,1.2c-1.7,0.1-3.4,0.1-4.9,0.8
	c-1.6,0.7-2.8,2.3-2.5,3.9L323.4,218.3z"/>
<path class="st1" d="M364.6,461.6l-34-33.8h99l-5.5,77.7l-15.2,0.1L391.2,488l-20.8,17.5l-55.1,0.1L364.6,461.6z"/>
<path class="st1" d="M423.1,267.8l-36.3-33.6l98.9-3.3l-1.7,93.6L451,293.7L241.1,505.5h-51.8L423.1,267.8z"/>
<path class="st1" d="M146.2,372.1l-35.3-35h99l-4.9,93.3l-31.8-31.5L61.7,505.5H7.3L146.2,372.1z"/>
<path class="st2" d="M193,305l134.5,133.3V305H193z"/>
<path class="st2" d="M281.7,308c-3,2.5-196.5,197.5-196.5,197.5h83.4l152.2-153L281.7,308z"/>
<path class="st3" d="M102.4,90.6c6.8-2.8,10-10.5,7.2-17.3s-10.5-10-17.3-7.2c-6.8,2.8-10,10.5-7.2,17.3
	C87.9,90.1,95.6,93.4,102.4,90.6z"/>
<path class="st3" d="M95.5,108.1c-0.1,0-0.1-2.5-0.1-5.5c0-3,0.1-5.5,0.1-5.5s0.1,2.5,0.1,5.5C95.6,105.6,95.5,108.1,95.5,108.1z"/>
<path class="st3" d="M87.9,94c0.1,0-1.1,2.3-2.8,5.1c-1.7,2.8-3,5-3,5c-0.1,0,1.1-2.3,2.8-5.1C86.4,96.1,87.7,94,87.9,94z"/>
<path class="st3" d="M80,89.1c0,0.1-1.3,1.2-3.1,2.7c-1.8,1.5-3.2,2.5-3.3,2.4c0-0.1,1.3-1.2,3.1-2.7C78.4,90.1,79.9,89,80,89.1z"/>
<path class="st3" d="M108.8,102.7c0,0-0.2-0.5-0.3-1.3c-0.2-0.8-0.4-2-0.8-3.2c-0.3-1.2-0.7-2.4-0.9-3.2c-0.2-0.8-0.4-1.3-0.4-1.3
	s0.2,0.5,0.5,1.2c0.3,0.8,0.7,2,1,3.2c0.3,1.2,0.6,2.5,0.7,3.3C108.7,102.2,108.8,102.7,108.8,102.7z"/>
<path class="st3" d="M122.2,93c0,0.1-1.8-1.3-3.9-3.2c-2.1-1.9-3.8-3.4-3.7-3.4c0-0.1,1.8,1.3,3.9,3.2C120.6,91.5,122.2,93,122.2,93
	z"/>
<path class="st3" d="M127.4,79.9c0,0-0.6-0.1-1.6-0.2c-1-0.2-2.4-0.4-3.8-0.5c-1.6-0.2-2.9-0.3-3.8-0.3c-1-0.1-1.7-0.1-1.7-0.1
	s0.6-0.1,1.7-0.1s2.4,0.1,3.9,0.2c1.6,0.2,2.9,0.4,3.8,0.6C126.8,79.7,127.4,79.9,127.4,79.9z"/>
<path class="st3" d="M127.4,67c0,0.1-2.9,0.8-6.4,1.8c-3.5,0.8-6.5,1.6-6.5,1.5s2.9-0.8,6.4-1.8C124.5,67.5,127.4,66.9,127.4,67z"/>
<path class="st3" d="M112.4,51.9c0.1,0-1.3,2.3-3.1,4.9c-1.8,2.7-3.2,4.8-3.3,4.8c-0.1,0,1.3-2.3,3.1-4.9
	C110.9,54,112.3,51.9,112.4,51.9z"/>
<path class="st3" d="M97.5,48.8c0,0,0,0.7,0,1.9s0,2.7,0,4.4c0,1.8,0,3.3,0,4.4c0,1.1,0,1.9,0,1.9s-0.1-0.7-0.2-1.9
	s-0.1-2.7-0.1-4.5s0.1-3.3,0.1-4.5C97.4,49.5,97.5,48.8,97.5,48.8z"/>
<path class="st3" d="M86.2,62.9c-0.1,0-1.5-2.2-3.1-4.9c-1.7-2.7-3-5-2.9-5s1.5,2.2,3.1,4.9S86.3,62.8,86.2,62.9z"/>
<path class="st3" d="M79.5,68.6c0,0-0.5,0-1.5-0.2c-0.8-0.2-2.1-0.5-3.3-0.8c-1.2-0.4-2.5-0.8-3.3-1.1c-0.8-0.3-1.3-0.5-1.3-0.6
	c0,0,0.5,0.1,1.3,0.4c0.8,0.3,2,0.6,3.3,1c1.2,0.4,2.5,0.7,3.3,0.9C78.9,68.4,79.5,68.6,79.5,68.6z"/>
<path class="st3" d="M76.5,78.8c0,0.1-1.9,0.3-4.2,0.5c-2.4,0.2-4.2,0.3-4.2,0.3c0-0.1,1.9-0.3,4.2-0.5
	C74.6,78.8,76.5,78.7,76.5,78.8z"/>
<path class="st4" d="M472.5,371c0.5-3.9-5-7.1-9.2-7.6c-2-0.2-4,0.1-5.9-0.5c-4-1.5-5.7-6.7-9.7-8.4c-3-1.2-6.4-0.1-9.3,1.3
	c-2.9,1.5-5.7,3.3-9,3.5c-2.8,0.2-5.9-0.8-8.3,0.5c-1.9,1-2.8,3.1-4.5,4.4c-1.7,1.2-3.8,1.5-5.9,1.6c-2.1,0.1-4.1,0.1-6,1
	c-1.9,0.8-3.4,2.8-3,4.9L472.5,371z"/>
<path class="st5" d="M472.5,371c0,0-0.1,0-0.3,0c-0.3,0-0.6,0-1,0c-0.9,0-2.3,0-4,0.1c-3.5,0.1-8.7,0.1-15,0.2
	c-12.7,0.1-30.6,0.4-50.5,0.6h-0.2v-0.2c-0.2-1.1,0.2-2.4,0.9-3.3c0.7-0.9,1.8-1.7,2.9-2.1c2.7-0.9,5.4-0.5,7.9-1
	c1.2-0.2,2.5-0.6,3.4-1.5c0.9-0.7,1.7-1.9,2.6-2.8c0.4-0.5,0.9-0.9,1.5-1.2s1.1-0.6,1.8-0.7c1.2-0.3,2.5-0.2,3.7-0.1
	c1.2,0.1,2.4,0.2,3.5,0.1c1.1-0.1,2.3-0.4,3.3-0.8c2.2-0.8,4-2.1,6.1-3c2-0.9,4.1-1.6,6.3-1.4c1,0.1,2.1,0.4,3,0.9
	c0.9,0.5,1.7,1.1,2.3,1.9c1.3,1.5,2.4,2.9,3.6,4.1c1.2,1.2,2.7,2.1,4.2,2.4c1.6,0.2,3,0.1,4.5,0.2c2.8,0.2,5.1,1.3,6.7,2.5
	c1.6,1.1,2.5,2.6,2.7,3.6C472.7,370.5,472.5,371,472.5,371s0.1-0.5-0.2-1.6c-0.3-1-1.1-2.3-2.7-3.4c-1.6-1.1-3.8-2.2-6.6-2.4
	c-1.3-0.1-2.9,0.1-4.5-0.2c-1.7-0.2-3.2-1.1-4.5-2.4c-1.2-1.2-2.4-2.8-3.6-4.1c-0.6-0.7-1.3-1.3-2.3-1.8c-0.8-0.5-1.8-0.7-2.8-0.8
	c-2-0.1-4.1,0.5-6.1,1.3c-2,0.9-3.9,2.2-6.1,3c-1.1,0.4-2.3,0.8-3.4,0.9c-1.2,0.1-2.5,0-3.6-0.1c-1.2-0.1-2.4-0.2-3.6,0.1
	c-1.1,0.2-2.2,0.9-3,1.9c-0.8,0.9-1.6,2-2.6,2.8c-1,0.8-2.4,1.3-3.6,1.6c-2.6,0.5-5.4,0.1-7.9,0.9c-1,0.3-2.1,1-2.7,1.9
	c-0.6,0.8-1,2-0.8,2.9l-0.3-0.2c19.8-0.1,37.5-0.3,50.2-0.4c6.3,0,11.5-0.1,15-0.1c1.8,0,3.1,0,4.1,0c0.4,0,0.8,0,1,0
	C472.4,371,472.5,371,472.5,371z"/>
<path class="st4" d="M250,457.7c0.7-5.2-6.6-9.5-12.2-9.9c-2.7-0.2-5.4,0.2-7.9-0.7c-5.4-1.9-7.6-8.9-12.8-11.2
	c-3.9-1.7-8.5-0.2-12.3,1.8c-3.8,2-7.7,4.4-11.9,4.7c-3.7,0.2-7.8-1.1-11.1,0.7c-2.4,1.3-3.7,4.1-5.9,5.8c-2.2,1.7-5.1,2-7.8,2.1
	c-2.7,0.1-5.5,0.2-8,1.3c-2.5,1.1-4.6,3.7-4,6.4L250,457.7z"/>
<path class="st5" d="M250,457.7c0,0-0.1,0-0.4,0c-0.3,0-0.8,0-1.3,0c-1.2,0-3,0.1-5.4,0.1c-4.7,0.1-11.5,0.2-19.9,0.3
	c-17,0.2-40.5,0.4-66.9,0.7h-0.2v-0.2c-0.3-1.6,0.2-3.1,1.2-4.4c0.9-1.2,2.4-2.2,3.8-2.7c3.5-1.1,7.1-0.7,10.5-1.3
	c1.7-0.3,3.3-0.8,4.6-1.9c1.3-1,2.3-2.5,3.4-3.7c0.6-0.6,1.2-1.2,2-1.7c0.7-0.4,1.6-0.8,2.4-0.9c1.7-0.3,3.3-0.2,5-0.1
	c1.7,0.1,3.2,0.3,4.8,0.1s3-0.6,4.5-1.1c2.8-1.1,5.4-2.7,8.1-3.9c2.7-1.2,5.5-2.1,8.3-1.9c1.3,0.1,2.8,0.5,3.9,1.1
	c1.1,0.6,2.2,1.6,3.1,2.5c1.8,1.9,3.2,3.8,4.9,5.5c1.7,1.7,3.5,2.8,5.6,3.1c2.1,0.3,4,0.1,5.9,0.3c1.9,0.1,3.5,0.6,5.1,1.2
	c1.4,0.6,2.8,1.3,3.8,2.1c1,0.8,1.9,1.7,2.5,2.5c0.6,0.8,0.9,1.7,1.1,2.3c0.1,0.7,0.2,1.2,0.1,1.6C250,457.5,250,457.7,250,457.7
	s0-0.2,0-0.5c0-0.3,0-0.8-0.2-1.6c-0.3-1.3-1.5-3.1-3.6-4.7c-1-0.7-2.3-1.5-3.8-2.1c-1.5-0.5-3.1-1-5-1.1c-1.9-0.1-3.8,0.1-5.9-0.2
	c-2.2-0.3-4.2-1.6-5.8-3.2c-1.7-1.7-3.1-3.6-4.9-5.5c-0.8-0.9-1.9-1.8-3-2.4c-1.1-0.6-2.4-1-3.7-1.1c-2.7-0.2-5.5,0.6-8.1,1.9
	c-2.6,1.2-5.2,2.8-8.1,4c-1.5,0.6-3,1-4.6,1.2c-1.7,0.2-3.2,0-4.9-0.1c-1.6-0.1-3.2-0.2-4.8,0.1c-0.8,0.2-1.6,0.5-2.2,0.9
	c-0.7,0.4-1.2,1-1.9,1.7c-1.1,1.2-2.1,2.7-3.4,3.7c-1.3,1.1-3.1,1.8-4.9,2.1c-3.4,0.6-7,0.1-10.4,1.2c-1.4,0.5-2.7,1.3-3.6,2.5
	c-0.9,1.1-1.3,2.6-1.1,3.9l-0.3-0.2c26.3-0.2,49.8-0.4,66.7-0.5c8.5,0,15.2-0.1,20-0.1c2.4,0,4.1,0,5.4,0c0.6,0,1,0,1.5,0
	C249.8,457.7,250,457.7,250,457.7z"/>
<path class="st4" d="M154.2,210.6c0.6-4.4-5.6-8-10.3-8.4c-2.2-0.2-4.6,0.2-6.6-0.6c-4.6-1.6-6.4-7.5-10.8-9.3
	c-3.3-1.5-7.1-0.1-10.4,1.4c-3.2,1.7-6.4,3.6-10.1,3.9c-3.1,0.2-6.5-0.9-9.3,0.5c-2.1,1.1-3.1,3.5-5,4.9c-1.9,1.3-4.2,1.7-6.5,1.8
	c-2.3,0.1-4.7,0.1-6.7,1.1c-2.1,0.9-3.8,3.1-3.4,5.4L154.2,210.6z"/>
<path class="st5" d="M154.2,210.6c0,0-0.1,0-0.4,0c-0.3,0-0.6,0-1.1,0c-1,0-2.6,0-4.5,0.1c-3.9,0.1-9.6,0.1-16.8,0.2
	c-14.3,0.2-34,0.4-56.2,0.6H75v-0.2c-0.2-1.3,0.2-2.7,1-3.7c0.8-1,2-1.9,3.3-2.3c2.9-1,6-0.6,8.8-1.1c1.5-0.2,2.8-0.7,3.8-1.6
	c1-0.8,1.9-2.1,2.9-3.1c0.5-0.5,1-1,1.7-1.5c0.6-0.4,1.3-0.6,2-0.8c1.5-0.3,2.8-0.2,4.1-0.1c1.3,0.1,2.7,0.2,3.9,0.1
	c1.2-0.1,2.6-0.5,3.7-0.9c2.4-0.9,4.6-2.3,6.8-3.3c2.3-1,4.7-1.8,7-1.6c1.1,0.1,2.3,0.4,3.3,1c1,0.5,1.9,1.3,2.6,2.1
	c1.5,1.6,2.7,3.2,4,4.7c1.3,1.3,3,2.4,4.7,2.6c1.8,0.3,3.4,0.1,5,0.2c3.1,0.2,5.7,1.6,7.5,2.8c1.8,1.3,2.7,2.9,3,4
	c0.1,0.5,0.2,1,0.1,1.3C154.2,210.5,154.2,210.6,154.2,210.6s0-0.2,0-0.4c0-0.3,0-0.7-0.2-1.2c-0.3-1.1-1.2-2.6-3-3.8
	c-1.8-1.2-4.2-2.5-7.4-2.7c-1.6-0.1-3.2,0.1-5-0.2c-1.8-0.2-3.5-1.2-4.9-2.7c-1.5-1.3-2.6-3.1-4-4.6c-0.7-0.7-1.6-1.5-2.5-2
	c-0.9-0.5-2.1-0.8-3.1-0.9c-2.3-0.2-4.6,0.5-6.7,1.6c-2.2,1-4.4,2.4-6.8,3.3c-1.2,0.5-2.5,0.8-3.8,1c-1.3,0.1-2.7,0-4-0.1
	c-1.3-0.1-2.7-0.2-4,0.1c-1.3,0.3-2.5,1-3.3,2.1c-0.9,1-1.8,2.2-2.9,3.2c-1.1,0.9-2.6,1.5-4,1.7c-2.9,0.5-5.9,0.1-8.7,1
	c-1.2,0.4-2.3,1.1-3,2.1c-0.7,0.9-1.1,2.2-0.9,3.3l-0.3-0.2c22.1-0.2,41.9-0.3,56-0.4c7,0,12.8-0.1,16.8-0.1c2,0,3.5,0,4.6,0
	c0.5,0,0.9,0,1.2,0H154.2z"/>
<path class="st0" d="M436.6,96.2c0.5-3.4-4.4-6.3-8.1-6.6c-1.8-0.1-3.5,0.1-5.2-0.4c-3.6-1.2-5-5.9-8.5-7.4
	c-2.6-1.1-5.6-0.1-8.2,1.1c-2.5,1.2-5.1,2.9-7.9,3.1c-2.5,0.2-5.2-0.7-7.3,0.4c-1.6,0.9-2.5,2.8-3.9,3.8c-1.5,1-3.3,1.2-5.2,1.3
	c-1.8,0.1-3.6,0.1-5.3,0.8c-1.7,0.7-3,2.5-2.7,4.2L436.6,96.2z"/>
<path class="st0" d="M436.6,96.2c0,0-0.1,0-0.3,0c-0.2,0-0.5,0-0.9,0c-0.8,0-2.1,0-3.5,0.1c-3.1,0-7.6,0.1-13.2,0.2
	c-11.2,0.1-26.7,0.3-44.2,0.5h-0.2v-0.2c-0.2-1,0.2-2.2,0.8-3c0.6-0.8,1.6-1.5,2.6-1.9c2.4-0.8,4.8-0.4,6.9-0.8
	c1.1-0.2,2.2-0.5,3-1.2c0.8-0.6,1.5-1.6,2.3-2.4c0.7-0.8,1.8-1.6,2.9-1.8c1.1-0.2,2.3-0.2,3.3-0.1c1,0.1,2.1,0.2,3.1,0.1
	c1-0.1,2-0.4,2.9-0.7c1.9-0.7,3.5-1.8,5.3-2.6c1.8-0.8,3.6-1.3,5.5-1.2c0.9,0.1,1.9,0.3,2.6,0.8c0.8,0.4,1.4,1,2.1,1.7
	c1.1,1.2,2.1,2.6,3.2,3.6c1,1.1,2.3,1.9,3.6,2.1c1.3,0.2,2.7,0.1,3.9,0.2c2.5,0.2,4.5,1.2,5.9,2.2c1.5,1,2.2,2.3,2.4,3.2
	C436.8,95.8,436.6,96.2,436.6,96.2s0.1-0.5-0.1-1.3c-0.2-0.8-0.9-2.1-2.4-3c-1.3-0.9-3.3-1.9-5.8-2.1c-1.2-0.1-2.5,0.1-3.9-0.1
	c-1.5-0.2-2.8-1-3.9-2.1c-1.1-1.1-2.1-2.4-3.2-3.6c-0.6-0.6-1.2-1.1-2-1.6s-1.6-0.6-2.5-0.7c-1.8-0.1-3.6,0.4-5.3,1.2
	c-1.8,0.8-3.4,1.9-5.4,2.6c-0.9,0.4-2,0.7-3,0.8c-1,0.1-2.2,0-3.2-0.1c-1-0.1-2.2-0.1-3.1,0.1c-1,0.2-1.9,0.8-2.6,1.7
	c-0.7,0.8-1.3,1.8-2.3,2.5c-0.9,0.7-2.1,1.1-3.2,1.3c-2.3,0.4-4.7,0.1-6.8,0.8c-0.9,0.3-1.8,0.9-2.4,1.7c-0.6,0.7-0.9,1.7-0.7,2.6
	l-0.3-0.2c17.4-0.1,32.8-0.2,44-0.3c5.6,0,10,0,13.2,0c1.6,0,2.7,0,3.6,0c0.4,0,0.7,0,0.9,0C436.5,96.2,436.6,96.2,436.6,96.2z"/>
<path class="st6" d="M256,278.4l-0.7,17c0,0,17.1,6.5,17.2,9.6l-33-0.2l0.1-26.6L256,278.4z"/>
<path class="st7" d="M245,293.9c-0.6,0.2-1.1,0.9-0.9,1.6c0.1,0.6,0.8,1.1,1.6,0.9c0.6-0.2,1.2-1,1-1.7
	C246.5,294.1,245.5,293.6,245,293.9z"/>
<g class="st8">
	<path class="st4" d="M239.4,304.8l0.1-2.7l31.7,1.2c0,0,1.4,0.6,1.2,1.7L239.4,304.8z"/>
</g>
<path class="st5" d="M255.8,295.3c0,0.2-0.8,0.2-1.7,0.7c-0.8,0.5-1.2,1.1-1.3,1.1s0.1-1,1-1.6C254.9,294.8,255.8,295.1,255.8,295.3
	z"/>
<path class="st5" d="M259.2,296.7c0,0.2-0.6,0.4-1.2,1.1c-0.6,0.6-0.7,1.4-0.8,1.3c-0.1,0-0.2-0.9,0.4-1.8
	C258.3,296.6,259.2,296.5,259.2,296.7z"/>
<path class="st5" d="M261.2,300.9c-0.1,0-0.4-0.7,0.1-1.7c0.4-0.9,1.1-1.2,1.2-1.1c0.1,0.1-0.4,0.6-0.7,1.3
	C261.4,300.1,261.4,300.9,261.2,300.9z"/>
<path class="st5" d="M255.5,291.3c-0.1,0.1-0.8-0.1-1.8,0c-0.9,0-1.7,0.3-1.8,0.2c-0.1-0.1,0.6-0.7,1.7-0.7
	C254.9,290.7,255.6,291.2,255.5,291.3z"/>
<path class="st6" d="M307.4,278.4l-0.7,17c0,0,17.1,6.5,17.2,9.6l-33-0.2l0.1-26.6L307.4,278.4z"/>
<path class="st7" d="M296.4,293.9c-0.6,0.2-1.1,0.9-0.9,1.6c0.1,0.6,0.8,1.1,1.6,0.9c0.6-0.2,1.2-1,1-1.7S296.9,293.6,296.4,293.9z"
	/>
<g class="st8">
	<path class="st4" d="M290.8,304.8l0.1-2.7l31.7,1.2c0,0,1.5,0.6,1.2,1.7L290.8,304.8z"/>
</g>
<path class="st5" d="M307.2,295.3c0,0.2-0.8,0.2-1.7,0.7c-0.8,0.5-1.2,1.1-1.3,1.1c-0.1,0,0.1-1,1-1.6
	C306.2,294.8,307.2,295.1,307.2,295.3z"/>
<path class="st5" d="M310.7,296.7c0,0.2-0.6,0.4-1.2,1.1c-0.6,0.6-0.7,1.4-0.8,1.3c-0.1,0-0.2-0.9,0.4-1.8
	C309.7,296.6,310.6,296.5,310.7,296.7z"/>
<path class="st5" d="M312.6,300.9c-0.1,0-0.4-0.7,0.1-1.7c0.4-0.9,1.1-1.2,1.2-1.1c0.1,0.1-0.4,0.6-0.7,1.3
	C312.8,300.1,312.8,300.9,312.6,300.9z"/>
<path class="st5" d="M307,291.3c-0.1,0.1-0.8-0.1-1.8,0c-0.9,0-1.7,0.3-1.8,0.2c-0.1-0.1,0.6-0.7,1.7-0.7
	C306.2,290.7,307,291.2,307,291.3z"/>
<path class="st5" d="M239.5,54.6c-1.1-3.2-2.3-6.4-2.9-9.7c-0.6-3.3-0.6-6.8,0.4-10c0.2-0.5,1.6-3.7,2.1-3.7c0.4,0-0.4,3.1-0.3,3.4
	c1.9,3,2.5,6.6,2.3,10C241.1,48.1,240.5,51.3,239.5,54.6z"/>
<path class="st9" d="M240.7,72.7L239.4,42c-0.6-8.5,3.2-16.1,11.7-16.5h0.9c7.9,0.1,14.3,6.3,14.8,14.1c0.5,7.4,0.9,15.6,0.7,19.6
	c-0.2,8.2-8.4,9.3-8.4,9.3s0.3,5.9,0.4,8.3c0,0-0.8,0.6-8.5,0.9C243.5,77.9,240.7,72.7,240.7,72.7z"/>
<path class="st10" d="M259.1,68.5c0,0-5.2,0.2-10.6-3.3c0,0,2.5,6,10.7,5.4L259.1,68.5z"/>
<path class="st5" d="M264,47c0,0.6-0.5,1.1-1.1,1.1c-0.6,0-1.1-0.4-1.1-1s0.5-1.1,1.1-1.1C263.5,45.9,264,46.4,264,47z"/>
<path class="st5" d="M264.7,44.1c-0.1,0.1-1-0.5-2.3-0.5c-1.2,0-2.2,0.6-2.3,0.4c-0.1-0.1,0.1-0.3,0.5-0.6c0.4-0.3,1-0.5,1.9-0.5
	c0.8,0,1.5,0.3,1.8,0.6C264.7,43.7,264.8,44,264.7,44.1z"/>
<path class="st5" d="M253.3,47.2c-0.1,0.1-1-0.5-2.3-0.5c-1.2,0-2.2,0.6-2.3,0.4c-0.1-0.1,0.1-0.3,0.5-0.6c0.4-0.3,1-0.5,1.9-0.5
	c0.8,0,1.5,0.3,1.8,0.6C253.2,46.8,253.4,47.1,253.3,47.2z"/>
<path class="st5" d="M257.1,54c0-0.1,0.8-0.2,2.1-0.3c0.3,0,0.6-0.1,0.7-0.3c0.1-0.2,0-0.6-0.2-0.9c-0.3-0.8-0.6-1.6-0.9-2.5
	c-1.2-3.5-2.2-6.3-2-6.4c0.1,0,1.2,2.7,2.5,6.2c0.3,0.8,0.6,1.7,0.8,2.5c0.1,0.4,0.3,0.8,0.1,1.2c-0.1,0.2-0.3,0.4-0.5,0.4
	c-0.2,0.1-0.4,0.1-0.5,0.1C257.9,54.1,257.1,54.1,257.1,54z"/>
<path class="st5" d="M253.3,43.8c-0.1,0.3-1.3,0.1-2.9,0.1c-1.4,0-2.7,0.3-2.9,0c-0.1-0.1,0.2-0.4,0.6-0.7c0.5-0.3,1.2-0.5,2.2-0.5
	c0.9,0,1.7,0.2,2.2,0.4C253.2,43.4,253.4,43.7,253.3,43.8z"/>
<path class="st5" d="M265.2,39.4c-0.2,0.3-1.2,0.2-2.4,0.5c-1.1,0.2-2.2,0.6-2.4,0.4c-0.1-0.1,0-0.4,0.3-0.8c0.4-0.3,1-0.7,1.9-0.9
	c0.8-0.1,1.6-0.1,2.1,0.1C265.1,39,265.3,39.3,265.2,39.4z"/>
<path class="st9" d="M239.9,48c-0.1-0.1-5.6-1.8-5.5,3.8c0.1,5.6,5.7,4.4,5.7,4.1S239.9,48,239.9,48z"/>
<path class="st10" d="M238.3,53.9c0,0-0.1,0.1-0.3,0.1c-0.2,0.1-0.4,0.1-0.7,0c-0.6-0.2-1.1-1.1-1.1-2.2c0-0.5,0.1-1,0.2-1.3
	c0.2-0.4,0.4-0.7,0.7-0.7c0.3-0.1,0.5,0.1,0.6,0.2c0.1,0.1,0,0.3,0.1,0.3c0,0,0.1-0.1,0.1-0.3c0-0.1-0.1-0.2-0.2-0.3
	c-0.1-0.1-0.3-0.2-0.5-0.1c-0.4,0-0.8,0.4-1,0.8c-0.2,0.4-0.3,1-0.3,1.6c0.1,1.1,0.6,2.2,1.4,2.4c0.4,0.1,0.7,0,0.9-0.2
	C238.3,54,238.3,53.9,238.3,53.9z"/>
<path class="st5" d="M262.9,30.6c0.9-0.5-1.9-3.4-4.1-4.4c-3.4-1.5-8.5-2.3-11.6-1.3c-3.7,1.1-6.7,3.1-8.5,6.5
	c-1.8,3.4-2.4,7.4-2.2,11.3c0.1,1.1,0.2,2.4,0.8,3.4c0.8,1.2,2.3,2,2.3,3.6c0,0.6,0.2,1.2,0.6,1.7c1,1,2.3,0,2.8-1
	c1.1-2.2,1.2-4.9,1.3-7.4c0-1.8,0.1-3.6-0.5-5.3c-0.3-0.9-0.7-1.8-1-2.7c-0.2-0.9-0.2-2,0.3-2.8c0.1-0.1,0.2-0.3,0.4-0.5
	c1.6-1.5,3.7-1.9,5.7-1.2c3.2,1,8.6,2.6,9.9,1.5c2-1.6,2.5-2.6,2.5-2.6L262.9,30.6z"/>
<path class="st5" d="M258,57.4c0,0.1-0.3,0.3-0.8,0.3c-0.5,0.1-1.3,0-2.2-0.4c-0.8-0.4-1.3-0.9-1.7-1.5C253,55.3,253,55,253,55
	c0.2-0.1,0.8,1,2.3,1.7C256.6,57.3,257.9,57.2,258,57.4z"/>
<path class="st9" d="M335.7,43.8c0,0-0.2-1.3-0.8-1.3c-0.6,0-1.7,0.3-2.1,1.3C332.2,44.8,335.7,43.8,335.7,43.8z"/>
<path class="st9" d="M319.2,64.5l0.6-10.3l2.1-10.6c0,0,1.7-1.8,2.5-1.3c0.8,0.4,0.5,1.9,0.5,1.9s2.3-2.5,3.1-1.9
	c0.8,0.5,0.5,1.9,0.5,1.9s2.1-2.7,3-2c0.9,0.7,0,2,0,2s1.2,11.9,0.6,16.2c-0.6,4.2-4.2,5.8-4.2,5.8l-1.8,6.6l-8.4-4.6L319.2,64.5z"
	/>
<path class="st2" d="M324.4,51.1l-45.8-0.5v-3.6l45.8-1.2V51.1z"/>
<path class="st2" d="M372.6,54.7L308,52c-0.8-2.2-0.8-4.6,0-7.1l64.2-2.8C375.1,45.1,375.1,51.6,372.6,54.7z"/>
<path class="st7" d="M372,42.6c0,0-2,1.9-1.9,5.8c0.1,3.9,2.1,5.6,2.1,5.6s2.1-2.3,1.8-6.2C373.7,43.9,372,42.6,372,42.6z"/>
<path class="st5" d="M369.4,54.7c0,0-0.6-0.5-1.2-1.6c-0.6-1-1.3-2.7-1.2-4.7c0-1.9,0.5-3.6,1.1-4.8c0.6-1.1,1.2-1.7,1.2-1.6
	c0.1,0.1-0.4,0.6-0.9,1.8c-0.5,1.1-0.9,2.7-0.9,4.6c0,1.9,0.5,3.4,1,4.5C369,54.1,369.4,54.7,369.4,54.7z"/>
<path class="st5" d="M372.3,42.2c0.1,0.1-0.4,0.6-0.9,1.8c-0.5,1.1-1,2.7-1,4.6c0,1.9,0.6,3.4,1.1,4.6s1.1,1.6,1.1,1.6
	s-0.2,0-0.5-0.2c-0.3-0.2-0.6-0.6-0.9-1.1c-0.6-1-1.3-2.8-1.3-4.7c0-2,0.5-3.6,1.1-4.8C371.7,42.7,372.2,42.2,372.3,42.2z"/>
<path class="st4" d="M373.2,45.5c-0.1-0.2-0.2-0.4-0.3-0.5c-0.2-0.1-0.4-0.2-0.6-0.2c-0.2,0-0.4,0.2-0.4,0.4c0,0.2,0,0.4,0.1,0.6
	c0.2,0.5,0.6,0.9,0.6,1.3c0,0.5-0.1,0.9-0.1,1.3c0,0.2,0.1,0.3,0.1,0.5c0.1,0.1,0.3,0.2,0.4,0.2c0.3,0,0.4-0.3,0.5-0.6
	C373.6,47.6,373.6,46.5,373.2,45.5z"/>
<path class="st5" d="M308,52.2c-0.1,0.1-0.9-1.6-0.9-3.7c0-2.2,0.9-3.7,1-3.7c0.1,0.1-0.4,1.7-0.5,3.7
	C307.6,50.6,308.2,52.1,308,52.2z"/>
<path class="st2" d="M278.5,51.5c-0.4,0-0.7-0.3-0.7-0.7v-3.8c0-0.4,0.3-0.7,0.7-0.7c0.4,0,0.7,0.3,0.7,0.7v3.8
	C279.2,51.2,278.9,51.5,278.5,51.5z"/>
<path class="st5" d="M278.5,51.5c0,0,0.2,0,0.4-0.2c0.1-0.1,0.2-0.2,0.2-0.4s0-0.5,0-0.7c0-0.6,0-1.2-0.1-2c0-0.4,0-0.7,0-1.1
	c0-0.3-0.2-0.5-0.4-0.5c-0.3,0-0.5,0.2-0.4,0.5c0,0.4,0,0.7,0,1.1c0,0.6,0,1.3-0.1,2c0,0.2,0,0.5,0,0.7s0.1,0.3,0.2,0.4
	C278.4,51.4,278.5,51.4,278.5,51.5c0,0-0.2,0.1-0.5-0.1c-0.1-0.1-0.3-0.3-0.3-0.5s0-0.5,0-0.7c0-0.6,0-1.2-0.1-2c0-0.4,0-0.7,0-1.1
	c0-0.2,0-0.5,0.2-0.7c0.2-0.2,0.4-0.3,0.7-0.3s0.6,0.1,0.7,0.3c0.2,0.2,0.2,0.5,0.2,0.7c0,0.4,0,0.7,0,1.1c0,0.6,0,1.3-0.1,2
	c0,0.2,0,0.5,0,0.7c0,0.3-0.2,0.4-0.3,0.5C278.7,51.6,278.5,51.5,278.5,51.5z"/>
<path class="st9" d="M286.5,59.2c0,0-0.9-12-0.7-13.1c0.3-1.2,3.6-4.8,4.8-4.9c1.1-0.1,1.2,1.1,1.2,1.1s1.7-1.1,3.2-1.1
	c1.7-0.1,1.9,1.5,1.9,1.5s0.9-0.7,2.6-0.4c0.7,0.1,1.5,1.3,1.5,1.3s1.7-0.7,2.5,0c1,0.9,1,2.7,1,2.7c-1.6-0.1-3,0.9-3,0.9
	s-0.4,5.2-1,7.8c-0.6,2.6-3.2,4.7-4,6l-0.7,8.9l-11-5.8L286.5,59.2z"/>
<path class="st10" d="M288.9,46.9c-0.1,0-0.2-1.6,0.9-3.1c1-1.6,2.6-2.1,2.6-1.9c0.1,0.1-1.2,0.8-2.2,2.2
	C289.3,45.6,289,46.9,288.9,46.9z"/>
<path class="st10" d="M294.2,46.7c-0.1,0-0.4-1.3,0.4-2.9c0.4-0.7,1-1.1,1.6-1.3c0.5-0.2,0.8-0.1,0.8-0.1c0,0.1-1.2,0.4-2,1.8
	C294.4,45.5,294.4,46.7,294.2,46.7z"/>
<path class="st10" d="M298.2,46.3c-0.1,0,0.1-1.1,1.1-2.1c1-0.9,2.2-1,2.2-0.9c0,0.1-0.9,0.5-1.9,1.3
	C298.8,45.5,298.4,46.4,298.2,46.3z"/>
<path class="st9" d="M326.1,62.1c1.9-2.2,0.4-7.9,0.4-7.9s2.6-0.8,3.2-3.4c0.6-2.6-0.6-3-0.6-3c-0.4,0.2-4.5,2.8-6.4,3.8
	c-2.1,1-2.7,12-2.7,12"/>
<path class="st10" d="M320,63.6c0,0,0-0.5,0-1.5s0.1-2.3,0.3-3.9c0.2-1.7,0.4-3.6,1.2-5.7c0.1-0.2,0.2-0.5,0.4-0.7s0.5-0.5,0.7-0.6
	c0.5-0.3,1-0.5,1.5-0.8c1-0.6,2.1-1.2,3.1-2c0.5-0.3,1-0.6,1.6-0.9l0.1-0.1h0.1c0.5,0.2,0.7,0.6,0.8,1c0.1,0.4,0.1,0.8,0.1,1.1
	c-0.1,0.7-0.2,1.5-0.5,2.2c-0.7,1.3-1.9,2.2-3,2.6l0.1-0.3c0.5,2.4,0.5,4.6,0.3,5.9c-0.1,0.7-0.4,1.2-0.5,1.6
	c-0.2,0.3-0.4,0.4-0.4,0.4s0.1-0.2,0.3-0.5c0.1-0.3,0.3-0.8,0.4-1.6c0.2-1.3,0.1-3.4-0.5-5.8v-0.2l0.2-0.1c1-0.4,2.1-1.2,2.7-2.4
	c0.3-0.6,0.4-1.2,0.5-2c0.1-0.6-0.1-1.5-0.6-1.7h0.2c-0.5,0.3-1,0.6-1.6,0.9c-1,0.6-2.1,1.3-3.1,1.9c-0.5,0.3-1,0.6-1.6,0.8
	c-0.3,0.1-0.4,0.2-0.6,0.4c-0.2,0.2-0.3,0.4-0.4,0.6c-0.8,2-1,3.9-1.3,5.5c-0.2,1.7-0.4,2.9-0.5,3.8C320.1,63.1,320,63.6,320,63.6z"
	/>
<path class="st5" d="M240.7,158.1c0,0,1.2,52.1,0,58.5c-1.2,6.3-3.4,32.6-3.4,52.1c0,19.5,0.8,23.9,0.8,23.9h19
	c0,0,1.3-37.1,7.1-58.5c5.4-19.9,11.7-50.2,11.7-63.3c0-13.2,0-17.8,0-17.8h-33.5L240.7,158.1z"/>
<path class="st5" d="M286.5,153c0,0,19.9,55.1,21.1,71.2c1.2,16.1,1.3,68.5,1.3,68.5h-19.6l-2.6-63.2l-15.1-40.9v-35.4h14.8V153z"/>
<path class="st6" d="M275.9,182.6c0,0-0.1,0.5-0.2,1.4c-0.2,1-0.5,2.4-0.8,4c-0.7,3.5-1.6,8.2-2.6,13.4c-1,5.3-2,9.9-2.7,13.4
	c-0.4,1.7-0.7,3.1-0.9,4c-0.2,0.9-0.4,1.4-0.4,1.4s0.1-0.5,0.2-1.4c0.2-1,0.5-2.4,0.8-4c0.7-3.5,1.6-8.2,2.6-13.4
	c1-5.3,2-9.9,2.7-13.4c0.4-1.7,0.7-3.1,0.9-4C275.7,183.2,275.8,182.6,275.9,182.6z"/>
<path class="st6" d="M294,177.4h4.2c0,0,0.9-14.5-1.5-24.3S282,100.6,282,100.6l-13.7-22.7l-7.4-3.3l24.1,81L294,177.4z"/>
<path class="st11" d="M278.7,106.9c0,0,12.7,37.6,14.8,47.6c2.1,9.8,3.2,22.9,3.2,22.9H294l-9.9-26.3c0,0-10.4-41.8-9.9-41.6
	C274.5,109.5,278.7,106.9,278.7,106.9z"/>
<path class="st7" d="M237.8,73.7l1.1-7.3l20.3,9.1v-4.5l8.9,14.9l19.7,55.9c0.6,1.8,1.5,7.5,0.2,8.9l-1.7,2l-21.3,2.8l-20.2-73
	L237.8,73.7z"/>
<path class="st11" d="M241.1,182.6c0,0,27.1,3,32.6,0.8c5.6-2.2,5.8-7.9,5.8-7.9s2.7-19.3,2.5-23.5c-0.2-4.8-1.8-11.7-1.8-11.7
	l-39.2,38.8V182.6z"/>
<path class="st12" d="M261.5,82.1c0,0,9.2,31.5,9.2,31.8c-0.1,0.2,10.3,32.3,10.3,32.3l2.1-9.6l-14.4-48.1l-5.8-7L261.5,82.1z"/>
<path class="st6" d="M231.8,76.7c-9.5,5.8-9.9,14.8-5.8,25.1c0.7,1.7,2.1,4.7,3,6.6c4,8.7,12.5,22.9,12.5,26.2c0,7.8-6.9,44-6.9,44
	s37.9,4.6,41.3,1c3.4-3.6,6-25.9,5-35.8c-1.2-11-6.9-29.6-9.2-36.6c-1.3-4.1-5.9-14.5-11.4-21.2c-4-5.1-8.9-9.4-14.4-13.1l-8.1-5.3
	l-1.7,5.6C236.1,73.1,233.9,75.3,231.8,76.7z"/>
<path class="st6" d="M268.6,79.2c0.8,0,35.4,11.3,33.5,10.5l0.9-0.9l12.4-18.9l11.4,6.7c0,0-11.3,21.5-13.2,25
	c-1.7,3-4.9,5.5-9.2,5.5c-2.6,0-24.2-3.6-24.2-3.6L268.6,79.2z"/>
<path class="st7" d="M282.5,66.2l2.7-4.8l12.1,6.8l-1.9,5.3L282.5,66.2z"/>
<path class="st11" d="M229.5,102c0,0,23.3,13,30.7,14.7c7.4,1.8,15.6,4,15.6,4l-3.3-10.6l-20.2-12.3L229.5,102z"/>
<path class="st6" d="M229.5,102c-0.3-0.2,34.9,12.3,42.1,10c7.1-2.3,9.5-9.3,12.1-13.8c4.7-8,13.1-23.9,13.1-23.9l-14.9-8.5
	L267,90.8c0,0-26.2-10.8-28.6-11.5c-2.4-0.7-9.8-1.7-13.6,7C220.7,95.9,229.5,102,229.5,102z"/>
<path class="st5" d="M229.5,102c0,0-0.1,0-0.3-0.2c-0.2-0.1-0.4-0.3-0.7-0.6c-0.6-0.5-1.6-1.3-2.4-2.7c-0.9-1.2-1.9-3-2.3-5.3
	c-0.1-0.5-0.1-1.1-0.2-1.8c0-0.6,0.1-1.2,0.1-1.9c0.1-0.6,0.2-1.3,0.4-2c0.2-0.6,0.4-1.3,0.7-2c0.5-1.3,1.4-2.7,2.5-3.8
	c1.1-1.1,2.6-2.2,4.2-2.7c1.7-0.6,3.5-0.7,5.4-0.4c0.9,0.1,1.9,0.4,2.8,0.8c0.9,0.3,1.9,0.7,2.7,1c7.4,2.9,15.6,6.3,24.6,9.9
	l-0.3,0.1c4.6-7.7,9.6-16.1,14.8-24.9l0.1-0.2l0.2,0.1c1.7,0.9,3.5,2,5.4,3.1c3.3,1.9,6.5,3.7,9.5,5.5l0.2,0.1l-0.1,0.2
	c-2.9,5.6-5.8,11-8.7,16.2c-1.5,2.6-2.8,5.1-4.2,7.6c-1.5,2.4-2.5,5-4,7.3c-1.5,2.3-3.3,4.2-5.6,5.6c-1.1,0.6-2.3,1.1-3.5,1.3
	c-1.2,0.2-2.5,0.1-3.6,0c-4.8-0.5-9-1.7-12.9-2.7c-7.8-2.1-14-4.1-18.1-5.5C231.8,102.9,229.5,102,229.5,102s0.1,0,0.4,0.1
	c0.3,0.1,0.7,0.2,1.2,0.4c1.1,0.4,2.8,0.9,4.9,1.6c4.2,1.3,10.5,3.3,18.2,5.4c3.9,0.9,8.2,2.1,12.9,2.6c1.1,0.1,2.4,0.2,3.5,0
	c1.1-0.2,2.3-0.7,3.4-1.3c2.2-1.2,3.9-3.2,5.4-5.5c1.5-2.3,2.6-4.8,4-7.3c1.5-2.5,2.8-5,4.2-7.6c2.8-5.2,5.7-10.6,8.6-16.2l0.1,0.3
	c-3-1.8-6.3-3.6-9.5-5.5c-1.9-1-3.6-2.1-5.4-3.1l0.4-0.1c-5.3,8.7-10.3,17.1-14.8,24.9l-0.1,0.2l-0.2-0.1c-8.9-3.6-17.1-7-24.4-9.9
	c-0.9-0.3-1.9-0.7-2.7-1c-0.9-0.3-1.8-0.6-2.7-0.8c-1.8-0.3-3.6-0.2-5.3,0.4c-1.7,0.5-3,1.5-4.1,2.6c-1,1.1-1.9,2.4-2.5,3.7
	c-0.3,0.6-0.5,1.3-0.7,2c-0.2,0.6-0.3,1.3-0.4,2c0,0.6-0.1,1.2-0.1,1.9c0,0.6,0,1.1,0.2,1.8c0.4,2.2,1.3,3.9,2.2,5.2
	c0.9,1.2,1.8,2.2,2.4,2.7c0.3,0.3,0.5,0.5,0.7,0.6C229.4,101.9,229.5,102,229.5,102z"/>
<path class="st6" d="M246.5,155.1l3.2-6.5l22.9,0.3l-2.6,6.8L246.5,155.1z"/>
<path class="st5" d="M246.5,155.1c0,0,0.2,0,0.5,0c0.4,0,0.8,0,1.3,0c1.2,0,2.9,0,5,0.1c4.2,0.1,10,0.1,16.8,0.3l-0.2,0.2
	c0.7-2.1,1.6-4.2,2.4-6.5c0-0.1,0.1-0.2,0.1-0.3l0.2,0.4c-9.2-0.2-17.4-0.3-22.8-0.5l0.2-0.1c-1,2-1.9,3.6-2.5,4.8
	c-0.3,0.5-0.5,0.9-0.7,1.3C246.6,155,246.5,155.1,246.5,155.1s0-0.1,0.2-0.4c0.2-0.3,0.3-0.7,0.6-1.2c0.6-1.2,1.3-2.9,2.4-5v-0.1
	h0.1c5.4,0,13.7,0.1,22.8,0.3h0.4l-0.1,0.3c0,0.1-0.1,0.2-0.1,0.3c-0.8,2.3-1.7,4.5-2.4,6.5l-0.1,0.2h-0.2c-6.8-0.2-12.7-0.4-17-0.6
	c-2.1-0.1-3.6-0.1-4.9-0.2c-0.5,0-0.9,0-1.2-0.1C246.6,155.2,246.5,155.1,246.5,155.1z"/>
<path class="st5" d="M261.7,87.9c-0.1,0.1-5.9-3-12.9-7.1c-7-4-12.7-7.5-12.6-7.6c0.1-0.1,5.9,3,12.9,7.1
	C256.1,84.3,261.8,87.6,261.7,87.9z"/>
<path class="st5" d="M269.6,137.7c0,0.1-5.5-0.1-12.3-0.5c-6.7-0.4-12.2-0.9-12.2-1c0-0.1,5.5,0.1,12.3,0.5
	C264.1,137.1,269.6,137.5,269.6,137.7z"/>
<path class="st7" d="M316.2,70.3l2.3-3.8l9.1,5.3l-1.8,4.2L316.2,70.3z"/>
<path class="st5" d="M304.4,97.6c-0.1,0.1-1.5-1.3-2.2-3.6c-0.8-2.3-0.6-4.2-0.4-4.1c0.2,0,0.2,1.9,0.9,4
	C303.4,95.9,304.6,97.5,304.4,97.6z"/>
<path class="st5" d="M282.1,101.3c0.1,0,1.1,2.9,2.2,6.4c1,3.6,1.8,6.5,1.7,6.6c-0.1,0-1.1-2.9-2.2-6.4
	C282.7,104.3,282,101.3,282.1,101.3z"/>
<path class="st5" d="M268.1,98.6c-0.1,0.1-1.3-1.5-1.8-3.8c-0.4-2.4,0.3-4.2,0.4-4.1c0.2,0-0.3,1.9,0.1,4
	C267.3,97,268.2,98.5,268.1,98.6z"/>
<path class="st11" d="M248.2,155.2l-0.4,2l23.7,0.7l1-9l-2.6,6.8L248.2,155.2z"/>
<path class="st12" d="M258.7,80l0.2,0.2l2.6,1.9l1.3-0.7l-0.8-2.9l-2.8-2.1L258.7,80z"/>
<path class="st5" d="M262.2,76.4c0.1,0,0.3,0.9,0.6,2.5l0.1,0.4l-0.4-0.3c-0.9-0.6-2.1-1.5-3.4-2.5l0.4-0.2
	c-0.1,0.8-0.2,1.7-0.4,2.6c-0.1,0.5-0.2,1-0.2,1.6l-0.1,0.3l-0.3-0.2c-2-0.9-3.7-1.9-5-2.5c-1.2-0.6-2-1-2-1.1s0.8,0.2,2.1,0.8
	c1.2,0.5,3,1.3,5.1,2.4l-0.4,0.2c0.1-0.5,0.2-1,0.2-1.6c0.1-0.9,0.3-1.8,0.4-2.6l0.1-0.4l0.3,0.3c1.3,1,2.5,1.9,3.3,2.6l-0.3,0.2
	C262.2,77.3,262.1,76.4,262.2,76.4z"/>
</svg>
